<mxfile host="Electron" agent="Mozilla/5.0 (X11; Linux x86_64) AppleWebKit/537.36 (KHTML, like Gecko) draw.io/26.0.16 Chrome/132.0.6834.210 Electron/34.3.2 Safari/537.36" version="26.0.16" pages="4">
  <diagram name="1" id="raGk_D8FTLXwgUmbc4jt">
    <mxGraphModel dx="1430" dy="849" grid="1" gridSize="10" guides="1" tooltips="1" connect="1" arrows="1" fold="1" page="1" pageScale="1" pageWidth="460" pageHeight="640" math="0" shadow="0">
      <root>
        <mxCell id="0" />
        <mxCell id="1" parent="0" />
        <mxCell id="ppWKIRa7KteUTko_k6aL-136" style="edgeStyle=orthogonalEdgeStyle;rounded=0;orthogonalLoop=1;jettySize=auto;html=1;exitX=0.5;exitY=0;exitDx=0;exitDy=0;entryX=0.5;entryY=0;entryDx=0;entryDy=0;fillColor=#dae8fc;strokeColor=#6c8ebf;" parent="1" source="zCmTgFsGxIaxcytd8qIg-1" target="ppWKIRa7KteUTko_k6aL-110" edge="1">
          <mxGeometry relative="1" as="geometry" />
        </mxCell>
        <mxCell id="zCmTgFsGxIaxcytd8qIg-1" value="1" style="text;html=1;align=center;verticalAlign=middle;whiteSpace=wrap;rounded=0;fillColor=#dae8fc;strokeColor=#6c8ebf;fontSize=14;fontColor=#333333;" parent="1" vertex="1">
          <mxGeometry x="60" y="59.94" width="40" height="20" as="geometry" />
        </mxCell>
        <mxCell id="AQBsLTuEEX6UYwU5JBV7-1" value="h" style="text;html=1;align=center;verticalAlign=middle;whiteSpace=wrap;rounded=0;fontSize=10;" parent="1" vertex="1">
          <mxGeometry x="60" y="579.94" width="40" height="20" as="geometry" />
        </mxCell>
        <mxCell id="ppWKIRa7KteUTko_k6aL-1" value="3" style="text;html=1;align=center;verticalAlign=middle;whiteSpace=wrap;rounded=0;fillColor=#dae8fc;strokeColor=#6c8ebf;fontSize=14;fontColor=#333333;" parent="1" vertex="1">
          <mxGeometry x="60" y="79.94" width="40" height="20" as="geometry" />
        </mxCell>
        <mxCell id="ppWKIRa7KteUTko_k6aL-2" value="1" style="text;html=1;align=center;verticalAlign=middle;whiteSpace=wrap;rounded=0;fillColor=#dae8fc;strokeColor=#6c8ebf;fontSize=14;fontColor=#333333;" parent="1" vertex="1">
          <mxGeometry x="60" y="99.94" width="40" height="20" as="geometry" />
        </mxCell>
        <mxCell id="ppWKIRa7KteUTko_k6aL-3" value="3" style="text;html=1;align=center;verticalAlign=middle;whiteSpace=wrap;rounded=0;fillColor=#dae8fc;strokeColor=#6c8ebf;fontSize=14;fontColor=#333333;" parent="1" vertex="1">
          <mxGeometry x="60" y="119.94" width="40" height="20" as="geometry" />
        </mxCell>
        <mxCell id="ppWKIRa7KteUTko_k6aL-4" value="1" style="text;html=1;align=center;verticalAlign=middle;whiteSpace=wrap;rounded=0;fillColor=#dae8fc;strokeColor=#6c8ebf;fontSize=14;fontColor=#333333;" parent="1" vertex="1">
          <mxGeometry x="60" y="139.94" width="40" height="20" as="geometry" />
        </mxCell>
        <mxCell id="ppWKIRa7KteUTko_k6aL-5" value="4" style="text;html=1;align=center;verticalAlign=middle;whiteSpace=wrap;rounded=0;fillColor=#dae8fc;strokeColor=#6c8ebf;fontSize=14;fontColor=#333333;" parent="1" vertex="1">
          <mxGeometry x="60" y="159.94" width="40" height="20" as="geometry" />
        </mxCell>
        <mxCell id="ppWKIRa7KteUTko_k6aL-6" value="1" style="text;html=1;align=center;verticalAlign=middle;whiteSpace=wrap;rounded=0;fillColor=#dae8fc;strokeColor=#6c8ebf;fontSize=14;fontColor=#333333;" parent="1" vertex="1">
          <mxGeometry x="60" y="179.94" width="40" height="20" as="geometry" />
        </mxCell>
        <mxCell id="ppWKIRa7KteUTko_k6aL-7" value="3" style="text;html=1;align=center;verticalAlign=middle;whiteSpace=wrap;rounded=0;fillColor=#dae8fc;strokeColor=#6c8ebf;fontSize=14;fontColor=#333333;" parent="1" vertex="1">
          <mxGeometry x="60" y="199.94" width="40" height="20" as="geometry" />
        </mxCell>
        <mxCell id="ppWKIRa7KteUTko_k6aL-8" value="2" style="text;html=1;align=center;verticalAlign=middle;whiteSpace=wrap;rounded=0;fillColor=#dae8fc;strokeColor=#6c8ebf;fontSize=14;fontColor=#333333;" parent="1" vertex="1">
          <mxGeometry x="60" y="219.94" width="40" height="20" as="geometry" />
        </mxCell>
        <mxCell id="ppWKIRa7KteUTko_k6aL-11" value="5" style="text;html=1;align=center;verticalAlign=middle;whiteSpace=wrap;rounded=0;fillColor=#dae8fc;strokeColor=#6c8ebf;fontSize=14;fontColor=#333333;" parent="1" vertex="1">
          <mxGeometry x="60" y="239.94" width="40" height="20" as="geometry" />
        </mxCell>
        <mxCell id="ppWKIRa7KteUTko_k6aL-12" value="5" style="text;html=1;align=center;verticalAlign=middle;whiteSpace=wrap;rounded=0;fillColor=#dae8fc;strokeColor=#6c8ebf;fontSize=14;fontColor=#333333;" parent="1" vertex="1">
          <mxGeometry x="60" y="259.94000000000005" width="40" height="20" as="geometry" />
        </mxCell>
        <mxCell id="ppWKIRa7KteUTko_k6aL-13" value="5" style="text;html=1;align=center;verticalAlign=middle;whiteSpace=wrap;rounded=0;fillColor=#dae8fc;strokeColor=#6c8ebf;fontSize=14;fontColor=#333333;" parent="1" vertex="1">
          <mxGeometry x="60" y="279.94000000000005" width="40" height="20" as="geometry" />
        </mxCell>
        <mxCell id="ppWKIRa7KteUTko_k6aL-14" value="5" style="text;html=1;align=center;verticalAlign=middle;whiteSpace=wrap;rounded=0;fillColor=#dae8fc;strokeColor=#6c8ebf;fontSize=14;fontColor=#333333;" parent="1" vertex="1">
          <mxGeometry x="60" y="299.94000000000005" width="40" height="20" as="geometry" />
        </mxCell>
        <mxCell id="ppWKIRa7KteUTko_k6aL-15" value="1" style="text;html=1;align=center;verticalAlign=middle;whiteSpace=wrap;rounded=0;fillColor=#dae8fc;strokeColor=#6c8ebf;fontSize=14;fontColor=#333333;" parent="1" vertex="1">
          <mxGeometry x="60" y="319.94000000000005" width="40" height="20" as="geometry" />
        </mxCell>
        <mxCell id="ppWKIRa7KteUTko_k6aL-16" value="1" style="text;html=1;align=center;verticalAlign=middle;whiteSpace=wrap;rounded=0;fillColor=#dae8fc;strokeColor=#6c8ebf;fontSize=14;fontColor=#333333;" parent="1" vertex="1">
          <mxGeometry x="60" y="339.94000000000005" width="40" height="20" as="geometry" />
        </mxCell>
        <mxCell id="ppWKIRa7KteUTko_k6aL-17" value="5" style="text;html=1;align=center;verticalAlign=middle;whiteSpace=wrap;rounded=0;fillColor=#dae8fc;strokeColor=#6c8ebf;fontSize=14;fontColor=#333333;" parent="1" vertex="1">
          <mxGeometry x="60" y="359.94000000000005" width="40" height="20" as="geometry" />
        </mxCell>
        <mxCell id="ppWKIRa7KteUTko_k6aL-18" value="5" style="text;html=1;align=center;verticalAlign=middle;whiteSpace=wrap;rounded=0;fillColor=#dae8fc;strokeColor=#6c8ebf;fontSize=14;fontColor=#333333;" parent="1" vertex="1">
          <mxGeometry x="60" y="379.94000000000005" width="40" height="20" as="geometry" />
        </mxCell>
        <mxCell id="ppWKIRa7KteUTko_k6aL-20" value="1" style="text;html=1;align=center;verticalAlign=middle;whiteSpace=wrap;rounded=0;fillColor=#dae8fc;strokeColor=#6c8ebf;fontSize=14;fontColor=#333333;" parent="1" vertex="1">
          <mxGeometry x="60" y="399.94000000000005" width="40" height="20" as="geometry" />
        </mxCell>
        <mxCell id="ppWKIRa7KteUTko_k6aL-21" value="5" style="text;html=1;align=center;verticalAlign=middle;whiteSpace=wrap;rounded=0;fillColor=#dae8fc;strokeColor=#6c8ebf;fontSize=14;fontColor=#333333;" parent="1" vertex="1">
          <mxGeometry x="60" y="419.94000000000005" width="40" height="20" as="geometry" />
        </mxCell>
        <mxCell id="ppWKIRa7KteUTko_k6aL-22" value="2" style="text;html=1;align=center;verticalAlign=middle;whiteSpace=wrap;rounded=0;fillColor=#dae8fc;strokeColor=#6c8ebf;fontSize=14;fontColor=#333333;" parent="1" vertex="1">
          <mxGeometry x="60" y="439.94000000000005" width="40" height="20" as="geometry" />
        </mxCell>
        <mxCell id="ppWKIRa7KteUTko_k6aL-23" value="5" style="text;html=1;align=center;verticalAlign=middle;whiteSpace=wrap;rounded=0;fillColor=#dae8fc;strokeColor=#6c8ebf;fontSize=14;fontColor=#333333;" parent="1" vertex="1">
          <mxGeometry x="60" y="459.94000000000005" width="40" height="20" as="geometry" />
        </mxCell>
        <mxCell id="ppWKIRa7KteUTko_k6aL-24" value="5" style="text;html=1;align=center;verticalAlign=middle;whiteSpace=wrap;rounded=0;fillColor=#dae8fc;strokeColor=#6c8ebf;fontSize=14;fontColor=#333333;" parent="1" vertex="1">
          <mxGeometry x="60" y="479.94000000000005" width="40" height="20" as="geometry" />
        </mxCell>
        <mxCell id="ppWKIRa7KteUTko_k6aL-25" value="5" style="text;html=1;align=center;verticalAlign=middle;whiteSpace=wrap;rounded=0;fillColor=#dae8fc;strokeColor=#6c8ebf;fontSize=14;fontColor=#333333;" parent="1" vertex="1">
          <mxGeometry x="60" y="499.94000000000005" width="40" height="20" as="geometry" />
        </mxCell>
        <mxCell id="ppWKIRa7KteUTko_k6aL-26" value="5" style="text;html=1;align=center;verticalAlign=middle;whiteSpace=wrap;rounded=0;fillColor=#dae8fc;strokeColor=#6c8ebf;fontSize=14;fontColor=#333333;" parent="1" vertex="1">
          <mxGeometry x="60" y="519.94" width="40" height="20" as="geometry" />
        </mxCell>
        <mxCell id="ppWKIRa7KteUTko_k6aL-27" value="5" style="text;html=1;align=center;verticalAlign=middle;whiteSpace=wrap;rounded=0;fillColor=#dae8fc;strokeColor=#6c8ebf;fontSize=14;fontColor=#333333;" parent="1" vertex="1">
          <mxGeometry x="60" y="539.94" width="40" height="20" as="geometry" />
        </mxCell>
        <mxCell id="ppWKIRa7KteUTko_k6aL-28" value="5" style="text;html=1;align=center;verticalAlign=middle;whiteSpace=wrap;rounded=0;fillColor=#dae8fc;strokeColor=#6c8ebf;fontSize=14;fontColor=#333333;" parent="1" vertex="1">
          <mxGeometry x="60" y="559.94" width="40" height="20" as="geometry" />
        </mxCell>
        <mxCell id="ppWKIRa7KteUTko_k6aL-31" value="0" style="text;html=1;align=center;verticalAlign=middle;whiteSpace=wrap;rounded=0;fontSize=10;" parent="1" vertex="1">
          <mxGeometry x="40" y="59.94" width="20" height="20" as="geometry" />
        </mxCell>
        <mxCell id="ppWKIRa7KteUTko_k6aL-32" value="1" style="text;html=1;align=center;verticalAlign=middle;whiteSpace=wrap;rounded=0;fontSize=10;" parent="1" vertex="1">
          <mxGeometry x="40" y="79.94" width="20" height="20" as="geometry" />
        </mxCell>
        <mxCell id="ppWKIRa7KteUTko_k6aL-33" value="2" style="text;html=1;align=center;verticalAlign=middle;whiteSpace=wrap;rounded=0;fontSize=10;" parent="1" vertex="1">
          <mxGeometry x="40" y="99.94" width="20" height="20" as="geometry" />
        </mxCell>
        <mxCell id="ppWKIRa7KteUTko_k6aL-34" value="3" style="text;html=1;align=center;verticalAlign=middle;whiteSpace=wrap;rounded=0;fontSize=10;" parent="1" vertex="1">
          <mxGeometry x="40" y="119.94" width="20" height="20" as="geometry" />
        </mxCell>
        <mxCell id="ppWKIRa7KteUTko_k6aL-35" value="4" style="text;html=1;align=center;verticalAlign=middle;whiteSpace=wrap;rounded=0;fontSize=10;" parent="1" vertex="1">
          <mxGeometry x="40" y="139.94" width="20" height="20" as="geometry" />
        </mxCell>
        <mxCell id="ppWKIRa7KteUTko_k6aL-36" value="5" style="text;html=1;align=center;verticalAlign=middle;whiteSpace=wrap;rounded=0;fontSize=10;" parent="1" vertex="1">
          <mxGeometry x="40" y="159.94" width="20" height="20" as="geometry" />
        </mxCell>
        <mxCell id="ppWKIRa7KteUTko_k6aL-37" value="6" style="text;html=1;align=center;verticalAlign=middle;whiteSpace=wrap;rounded=0;fontSize=10;" parent="1" vertex="1">
          <mxGeometry x="40" y="179.94" width="20" height="20" as="geometry" />
        </mxCell>
        <mxCell id="ppWKIRa7KteUTko_k6aL-38" value="7" style="text;html=1;align=center;verticalAlign=middle;whiteSpace=wrap;rounded=0;fontSize=10;" parent="1" vertex="1">
          <mxGeometry x="40" y="199.94" width="20" height="20" as="geometry" />
        </mxCell>
        <mxCell id="ppWKIRa7KteUTko_k6aL-39" value="8" style="text;html=1;align=center;verticalAlign=middle;whiteSpace=wrap;rounded=0;fontSize=10;" parent="1" vertex="1">
          <mxGeometry x="40" y="219.94" width="20" height="20" as="geometry" />
        </mxCell>
        <mxCell id="ppWKIRa7KteUTko_k6aL-40" value="9" style="text;html=1;align=center;verticalAlign=middle;whiteSpace=wrap;rounded=0;fontSize=10;" parent="1" vertex="1">
          <mxGeometry x="40" y="239.94" width="20" height="20" as="geometry" />
        </mxCell>
        <mxCell id="ppWKIRa7KteUTko_k6aL-41" value="10" style="text;html=1;align=center;verticalAlign=middle;whiteSpace=wrap;rounded=0;fontSize=10;" parent="1" vertex="1">
          <mxGeometry x="40" y="259.94000000000005" width="20" height="20" as="geometry" />
        </mxCell>
        <mxCell id="ppWKIRa7KteUTko_k6aL-42" value="11" style="text;html=1;align=center;verticalAlign=middle;whiteSpace=wrap;rounded=0;fontSize=10;" parent="1" vertex="1">
          <mxGeometry x="40" y="279.94000000000005" width="20" height="20" as="geometry" />
        </mxCell>
        <mxCell id="ppWKIRa7KteUTko_k6aL-43" value="12" style="text;html=1;align=center;verticalAlign=middle;whiteSpace=wrap;rounded=0;fontSize=10;" parent="1" vertex="1">
          <mxGeometry x="40" y="299.94000000000005" width="20" height="20" as="geometry" />
        </mxCell>
        <mxCell id="ppWKIRa7KteUTko_k6aL-44" value="13" style="text;html=1;align=center;verticalAlign=middle;whiteSpace=wrap;rounded=0;fontSize=10;" parent="1" vertex="1">
          <mxGeometry x="40" y="319.94000000000005" width="20" height="20" as="geometry" />
        </mxCell>
        <mxCell id="ppWKIRa7KteUTko_k6aL-45" value="14" style="text;html=1;align=center;verticalAlign=middle;whiteSpace=wrap;rounded=0;fontSize=10;" parent="1" vertex="1">
          <mxGeometry x="40" y="339.94000000000005" width="20" height="20" as="geometry" />
        </mxCell>
        <mxCell id="ppWKIRa7KteUTko_k6aL-46" value="15" style="text;html=1;align=center;verticalAlign=middle;whiteSpace=wrap;rounded=0;fontSize=10;" parent="1" vertex="1">
          <mxGeometry x="40" y="359.94000000000005" width="20" height="20" as="geometry" />
        </mxCell>
        <mxCell id="ppWKIRa7KteUTko_k6aL-47" value="16" style="text;html=1;align=center;verticalAlign=middle;whiteSpace=wrap;rounded=0;fontSize=10;" parent="1" vertex="1">
          <mxGeometry x="40" y="379.94000000000005" width="20" height="20" as="geometry" />
        </mxCell>
        <mxCell id="ppWKIRa7KteUTko_k6aL-48" value="17" style="text;html=1;align=center;verticalAlign=middle;whiteSpace=wrap;rounded=0;fontSize=10;" parent="1" vertex="1">
          <mxGeometry x="40" y="399.94000000000005" width="20" height="20" as="geometry" />
        </mxCell>
        <mxCell id="ppWKIRa7KteUTko_k6aL-49" value="18" style="text;html=1;align=center;verticalAlign=middle;whiteSpace=wrap;rounded=0;fontSize=10;" parent="1" vertex="1">
          <mxGeometry x="40" y="419.94000000000005" width="20" height="20" as="geometry" />
        </mxCell>
        <mxCell id="ppWKIRa7KteUTko_k6aL-50" value="19" style="text;html=1;align=center;verticalAlign=middle;whiteSpace=wrap;rounded=0;fontSize=10;" parent="1" vertex="1">
          <mxGeometry x="40" y="439.94000000000005" width="20" height="20" as="geometry" />
        </mxCell>
        <mxCell id="ppWKIRa7KteUTko_k6aL-51" value="20" style="text;html=1;align=center;verticalAlign=middle;whiteSpace=wrap;rounded=0;fontSize=10;" parent="1" vertex="1">
          <mxGeometry x="40" y="459.94000000000005" width="20" height="20" as="geometry" />
        </mxCell>
        <mxCell id="ppWKIRa7KteUTko_k6aL-52" value="21" style="text;html=1;align=center;verticalAlign=middle;whiteSpace=wrap;rounded=0;fontSize=10;" parent="1" vertex="1">
          <mxGeometry x="40" y="479.94000000000005" width="20" height="20" as="geometry" />
        </mxCell>
        <mxCell id="ppWKIRa7KteUTko_k6aL-53" value="22" style="text;html=1;align=center;verticalAlign=middle;whiteSpace=wrap;rounded=0;fontSize=10;" parent="1" vertex="1">
          <mxGeometry x="40" y="499.94000000000005" width="20" height="20" as="geometry" />
        </mxCell>
        <mxCell id="ppWKIRa7KteUTko_k6aL-54" value="23" style="text;html=1;align=center;verticalAlign=middle;whiteSpace=wrap;rounded=0;fontSize=10;" parent="1" vertex="1">
          <mxGeometry x="40" y="519.94" width="20" height="20" as="geometry" />
        </mxCell>
        <mxCell id="ppWKIRa7KteUTko_k6aL-55" value="24" style="text;html=1;align=center;verticalAlign=middle;whiteSpace=wrap;rounded=0;fontSize=10;" parent="1" vertex="1">
          <mxGeometry x="40" y="539.94" width="20" height="20" as="geometry" />
        </mxCell>
        <mxCell id="ppWKIRa7KteUTko_k6aL-56" value="25" style="text;html=1;align=center;verticalAlign=middle;whiteSpace=wrap;rounded=0;fontSize=10;" parent="1" vertex="1">
          <mxGeometry x="40" y="559.94" width="20" height="20" as="geometry" />
        </mxCell>
        <mxCell id="ppWKIRa7KteUTko_k6aL-57" value="a" style="text;html=1;align=center;verticalAlign=middle;whiteSpace=wrap;rounded=0;fillColor=#f5f5f5;strokeColor=#666666;fontSize=14;fontColor=#333333;" parent="1" vertex="1">
          <mxGeometry x="140" y="59.94" width="40" height="20" as="geometry" />
        </mxCell>
        <mxCell id="ppWKIRa7KteUTko_k6aL-58" value="counts" style="text;html=1;align=center;verticalAlign=middle;whiteSpace=wrap;rounded=0;fontSize=10;" parent="1" vertex="1">
          <mxGeometry x="140" y="579.94" width="80" height="20" as="geometry" />
        </mxCell>
        <mxCell id="ppWKIRa7KteUTko_k6aL-59" value="b" style="text;html=1;align=center;verticalAlign=middle;whiteSpace=wrap;rounded=0;fillColor=#f5f5f5;strokeColor=#666666;fontSize=14;fontColor=#333333;" parent="1" vertex="1">
          <mxGeometry x="140" y="79.94" width="40" height="20" as="geometry" />
        </mxCell>
        <mxCell id="ppWKIRa7KteUTko_k6aL-60" value="c" style="text;html=1;align=center;verticalAlign=middle;whiteSpace=wrap;rounded=0;fillColor=#f5f5f5;strokeColor=#666666;fontSize=14;fontColor=#333333;" parent="1" vertex="1">
          <mxGeometry x="140" y="99.94" width="40" height="20" as="geometry" />
        </mxCell>
        <mxCell id="ppWKIRa7KteUTko_k6aL-61" value="d" style="text;html=1;align=center;verticalAlign=middle;whiteSpace=wrap;rounded=0;fillColor=#f5f5f5;strokeColor=#666666;fontSize=14;fontColor=#333333;" parent="1" vertex="1">
          <mxGeometry x="140" y="119.94" width="40" height="20" as="geometry" />
        </mxCell>
        <mxCell id="ppWKIRa7KteUTko_k6aL-62" value="e" style="text;html=1;align=center;verticalAlign=middle;whiteSpace=wrap;rounded=0;fillColor=#f5f5f5;strokeColor=#666666;fontSize=14;fontColor=#333333;" parent="1" vertex="1">
          <mxGeometry x="140" y="139.94" width="40" height="20" as="geometry" />
        </mxCell>
        <mxCell id="ppWKIRa7KteUTko_k6aL-63" value="f" style="text;html=1;align=center;verticalAlign=middle;whiteSpace=wrap;rounded=0;fillColor=#f5f5f5;strokeColor=#666666;fontSize=14;fontColor=#333333;" parent="1" vertex="1">
          <mxGeometry x="140" y="159.94" width="40" height="20" as="geometry" />
        </mxCell>
        <mxCell id="ppWKIRa7KteUTko_k6aL-64" value="g" style="text;html=1;align=center;verticalAlign=middle;whiteSpace=wrap;rounded=0;fillColor=#f5f5f5;strokeColor=#666666;fontSize=14;fontColor=#333333;" parent="1" vertex="1">
          <mxGeometry x="140" y="179.94" width="40" height="20" as="geometry" />
        </mxCell>
        <mxCell id="ppWKIRa7KteUTko_k6aL-65" value="h" style="text;html=1;align=center;verticalAlign=middle;whiteSpace=wrap;rounded=0;fillColor=#f5f5f5;strokeColor=#666666;fontSize=14;fontColor=#333333;" parent="1" vertex="1">
          <mxGeometry x="140" y="199.94" width="40" height="20" as="geometry" />
        </mxCell>
        <mxCell id="ppWKIRa7KteUTko_k6aL-66" value="i" style="text;html=1;align=center;verticalAlign=middle;whiteSpace=wrap;rounded=0;fillColor=#f5f5f5;strokeColor=#666666;fontSize=14;fontColor=#333333;" parent="1" vertex="1">
          <mxGeometry x="140" y="219.94" width="40" height="20" as="geometry" />
        </mxCell>
        <mxCell id="ppWKIRa7KteUTko_k6aL-67" value="j" style="text;html=1;align=center;verticalAlign=middle;whiteSpace=wrap;rounded=0;fillColor=#f5f5f5;strokeColor=#666666;fontSize=14;fontColor=#333333;" parent="1" vertex="1">
          <mxGeometry x="140" y="239.94" width="40" height="20" as="geometry" />
        </mxCell>
        <mxCell id="ppWKIRa7KteUTko_k6aL-68" value="k" style="text;html=1;align=center;verticalAlign=middle;whiteSpace=wrap;rounded=0;fillColor=#f5f5f5;strokeColor=#666666;fontSize=14;fontColor=#333333;" parent="1" vertex="1">
          <mxGeometry x="140" y="259.94000000000005" width="40" height="20" as="geometry" />
        </mxCell>
        <mxCell id="ppWKIRa7KteUTko_k6aL-69" value="l" style="text;html=1;align=center;verticalAlign=middle;whiteSpace=wrap;rounded=0;fillColor=#f5f5f5;strokeColor=#666666;fontSize=14;fontColor=#333333;" parent="1" vertex="1">
          <mxGeometry x="140" y="279.94000000000005" width="40" height="20" as="geometry" />
        </mxCell>
        <mxCell id="ppWKIRa7KteUTko_k6aL-70" value="m" style="text;html=1;align=center;verticalAlign=middle;whiteSpace=wrap;rounded=0;fillColor=#f5f5f5;strokeColor=#666666;fontSize=14;fontColor=#333333;" parent="1" vertex="1">
          <mxGeometry x="140" y="299.94000000000005" width="40" height="20" as="geometry" />
        </mxCell>
        <mxCell id="ppWKIRa7KteUTko_k6aL-71" value="n" style="text;html=1;align=center;verticalAlign=middle;whiteSpace=wrap;rounded=0;fillColor=#f5f5f5;strokeColor=#666666;fontSize=14;fontColor=#333333;" parent="1" vertex="1">
          <mxGeometry x="140" y="319.94000000000005" width="40" height="20" as="geometry" />
        </mxCell>
        <mxCell id="ppWKIRa7KteUTko_k6aL-72" value="o" style="text;html=1;align=center;verticalAlign=middle;whiteSpace=wrap;rounded=0;fillColor=#f5f5f5;strokeColor=#666666;fontSize=14;fontColor=#333333;" parent="1" vertex="1">
          <mxGeometry x="140" y="339.94000000000005" width="40" height="20" as="geometry" />
        </mxCell>
        <mxCell id="ppWKIRa7KteUTko_k6aL-73" value="p" style="text;html=1;align=center;verticalAlign=middle;whiteSpace=wrap;rounded=0;fillColor=#f5f5f5;strokeColor=#666666;fontSize=14;fontColor=#333333;" parent="1" vertex="1">
          <mxGeometry x="140" y="359.94000000000005" width="40" height="20" as="geometry" />
        </mxCell>
        <mxCell id="ppWKIRa7KteUTko_k6aL-74" value="q" style="text;html=1;align=center;verticalAlign=middle;whiteSpace=wrap;rounded=0;fillColor=#f5f5f5;strokeColor=#666666;fontSize=14;fontColor=#333333;" parent="1" vertex="1">
          <mxGeometry x="140" y="379.94000000000005" width="40" height="20" as="geometry" />
        </mxCell>
        <mxCell id="ppWKIRa7KteUTko_k6aL-75" value="r" style="text;html=1;align=center;verticalAlign=middle;whiteSpace=wrap;rounded=0;fillColor=#f5f5f5;strokeColor=#666666;fontSize=14;fontColor=#333333;" parent="1" vertex="1">
          <mxGeometry x="140" y="399.94000000000005" width="40" height="20" as="geometry" />
        </mxCell>
        <mxCell id="ppWKIRa7KteUTko_k6aL-76" value="s" style="text;html=1;align=center;verticalAlign=middle;whiteSpace=wrap;rounded=0;fillColor=#f5f5f5;strokeColor=#666666;fontSize=14;fontColor=#333333;" parent="1" vertex="1">
          <mxGeometry x="140" y="419.94000000000005" width="40" height="20" as="geometry" />
        </mxCell>
        <mxCell id="ppWKIRa7KteUTko_k6aL-77" value="t" style="text;html=1;align=center;verticalAlign=middle;whiteSpace=wrap;rounded=0;fillColor=#f5f5f5;strokeColor=#666666;fontSize=14;fontColor=#333333;" parent="1" vertex="1">
          <mxGeometry x="140" y="439.94000000000005" width="40" height="20" as="geometry" />
        </mxCell>
        <mxCell id="ppWKIRa7KteUTko_k6aL-78" value="u" style="text;html=1;align=center;verticalAlign=middle;whiteSpace=wrap;rounded=0;fillColor=#f5f5f5;strokeColor=#666666;fontSize=14;fontColor=#333333;" parent="1" vertex="1">
          <mxGeometry x="140" y="459.94000000000005" width="40" height="20" as="geometry" />
        </mxCell>
        <mxCell id="ppWKIRa7KteUTko_k6aL-79" value="v" style="text;html=1;align=center;verticalAlign=middle;whiteSpace=wrap;rounded=0;fillColor=#f5f5f5;strokeColor=#666666;fontSize=14;fontColor=#333333;" parent="1" vertex="1">
          <mxGeometry x="140" y="479.94000000000005" width="40" height="20" as="geometry" />
        </mxCell>
        <mxCell id="ppWKIRa7KteUTko_k6aL-80" value="w" style="text;html=1;align=center;verticalAlign=middle;whiteSpace=wrap;rounded=0;fillColor=#f5f5f5;strokeColor=#666666;fontSize=14;fontColor=#333333;" parent="1" vertex="1">
          <mxGeometry x="140" y="499.94000000000005" width="40" height="20" as="geometry" />
        </mxCell>
        <mxCell id="ppWKIRa7KteUTko_k6aL-81" value="x" style="text;html=1;align=center;verticalAlign=middle;whiteSpace=wrap;rounded=0;fillColor=#f5f5f5;strokeColor=#666666;fontSize=14;fontColor=#333333;" parent="1" vertex="1">
          <mxGeometry x="140" y="519.94" width="40" height="20" as="geometry" />
        </mxCell>
        <mxCell id="ppWKIRa7KteUTko_k6aL-82" value="y" style="text;html=1;align=center;verticalAlign=middle;whiteSpace=wrap;rounded=0;fillColor=#f5f5f5;strokeColor=#666666;fontSize=14;fontColor=#333333;" parent="1" vertex="1">
          <mxGeometry x="140" y="539.94" width="40" height="20" as="geometry" />
        </mxCell>
        <mxCell id="ppWKIRa7KteUTko_k6aL-83" value="z" style="text;html=1;align=center;verticalAlign=middle;whiteSpace=wrap;rounded=0;fillColor=#f5f5f5;strokeColor=#666666;fontSize=14;fontColor=#333333;" parent="1" vertex="1">
          <mxGeometry x="140" y="559.94" width="40" height="20" as="geometry" />
        </mxCell>
        <mxCell id="ppWKIRa7KteUTko_k6aL-110" value="1" style="text;html=1;align=center;verticalAlign=middle;whiteSpace=wrap;rounded=0;fillColor=#dae8fc;strokeColor=#6c8ebf;fontSize=14;fontColor=#333333;" parent="1" vertex="1">
          <mxGeometry x="180" y="59.94" width="40" height="20" as="geometry" />
        </mxCell>
        <mxCell id="ppWKIRa7KteUTko_k6aL-111" value="3" style="text;html=1;align=center;verticalAlign=middle;whiteSpace=wrap;rounded=0;fillColor=#dae8fc;strokeColor=#6c8ebf;fontSize=14;fontColor=#333333;" parent="1" vertex="1">
          <mxGeometry x="180" y="79.94" width="40" height="20" as="geometry" />
        </mxCell>
        <mxCell id="ppWKIRa7KteUTko_k6aL-112" value="1" style="text;html=1;align=center;verticalAlign=middle;whiteSpace=wrap;rounded=0;fillColor=#dae8fc;strokeColor=#6c8ebf;fontSize=14;fontColor=#333333;" parent="1" vertex="1">
          <mxGeometry x="180" y="99.94" width="40" height="20" as="geometry" />
        </mxCell>
        <mxCell id="ppWKIRa7KteUTko_k6aL-113" value="3" style="text;html=1;align=center;verticalAlign=middle;whiteSpace=wrap;rounded=0;fillColor=#dae8fc;strokeColor=#6c8ebf;fontSize=14;fontColor=#333333;" parent="1" vertex="1">
          <mxGeometry x="180" y="119.94" width="40" height="20" as="geometry" />
        </mxCell>
        <mxCell id="ppWKIRa7KteUTko_k6aL-114" value="1" style="text;html=1;align=center;verticalAlign=middle;whiteSpace=wrap;rounded=0;fillColor=#dae8fc;strokeColor=#6c8ebf;fontSize=14;fontColor=#333333;" parent="1" vertex="1">
          <mxGeometry x="180" y="139.94" width="40" height="20" as="geometry" />
        </mxCell>
        <mxCell id="ppWKIRa7KteUTko_k6aL-115" value="4" style="text;html=1;align=center;verticalAlign=middle;whiteSpace=wrap;rounded=0;fillColor=#dae8fc;strokeColor=#6c8ebf;fontSize=14;fontColor=#333333;" parent="1" vertex="1">
          <mxGeometry x="180" y="159.94" width="40" height="20" as="geometry" />
        </mxCell>
        <mxCell id="ppWKIRa7KteUTko_k6aL-116" value="1" style="text;html=1;align=center;verticalAlign=middle;whiteSpace=wrap;rounded=0;fillColor=#dae8fc;strokeColor=#6c8ebf;fontSize=14;fontColor=#333333;" parent="1" vertex="1">
          <mxGeometry x="180" y="179.94" width="40" height="20" as="geometry" />
        </mxCell>
        <mxCell id="ppWKIRa7KteUTko_k6aL-117" value="3" style="text;html=1;align=center;verticalAlign=middle;whiteSpace=wrap;rounded=0;fillColor=#dae8fc;strokeColor=#6c8ebf;fontSize=14;fontColor=#333333;" parent="1" vertex="1">
          <mxGeometry x="180" y="199.94" width="40" height="20" as="geometry" />
        </mxCell>
        <mxCell id="ppWKIRa7KteUTko_k6aL-118" value="2" style="text;html=1;align=center;verticalAlign=middle;whiteSpace=wrap;rounded=0;fillColor=#dae8fc;strokeColor=#6c8ebf;fontSize=14;fontColor=#333333;" parent="1" vertex="1">
          <mxGeometry x="180" y="219.94" width="40" height="20" as="geometry" />
        </mxCell>
        <mxCell id="ppWKIRa7KteUTko_k6aL-119" value="5" style="text;html=1;align=center;verticalAlign=middle;whiteSpace=wrap;rounded=0;fillColor=#dae8fc;strokeColor=#6c8ebf;fontSize=14;fontColor=#333333;" parent="1" vertex="1">
          <mxGeometry x="180" y="239.94" width="40" height="20" as="geometry" />
        </mxCell>
        <mxCell id="ppWKIRa7KteUTko_k6aL-120" value="5" style="text;html=1;align=center;verticalAlign=middle;whiteSpace=wrap;rounded=0;fillColor=#dae8fc;strokeColor=#6c8ebf;fontSize=14;fontColor=#333333;" parent="1" vertex="1">
          <mxGeometry x="180" y="259.94000000000005" width="40" height="20" as="geometry" />
        </mxCell>
        <mxCell id="ppWKIRa7KteUTko_k6aL-121" value="5" style="text;html=1;align=center;verticalAlign=middle;whiteSpace=wrap;rounded=0;fillColor=#dae8fc;strokeColor=#6c8ebf;fontSize=14;fontColor=#333333;" parent="1" vertex="1">
          <mxGeometry x="180" y="279.94000000000005" width="40" height="20" as="geometry" />
        </mxCell>
        <mxCell id="ppWKIRa7KteUTko_k6aL-122" value="5" style="text;html=1;align=center;verticalAlign=middle;whiteSpace=wrap;rounded=0;fillColor=#dae8fc;strokeColor=#6c8ebf;fontSize=14;fontColor=#333333;" parent="1" vertex="1">
          <mxGeometry x="180" y="299.94000000000005" width="40" height="20" as="geometry" />
        </mxCell>
        <mxCell id="ppWKIRa7KteUTko_k6aL-123" value="1" style="text;html=1;align=center;verticalAlign=middle;whiteSpace=wrap;rounded=0;fillColor=#dae8fc;strokeColor=#6c8ebf;fontSize=14;fontColor=#333333;" parent="1" vertex="1">
          <mxGeometry x="180" y="319.94000000000005" width="40" height="20" as="geometry" />
        </mxCell>
        <mxCell id="ppWKIRa7KteUTko_k6aL-124" value="1" style="text;html=1;align=center;verticalAlign=middle;whiteSpace=wrap;rounded=0;fillColor=#dae8fc;strokeColor=#6c8ebf;fontSize=14;fontColor=#333333;" parent="1" vertex="1">
          <mxGeometry x="180" y="339.94000000000005" width="40" height="20" as="geometry" />
        </mxCell>
        <mxCell id="ppWKIRa7KteUTko_k6aL-125" value="5" style="text;html=1;align=center;verticalAlign=middle;whiteSpace=wrap;rounded=0;fillColor=#dae8fc;strokeColor=#6c8ebf;fontSize=14;fontColor=#333333;" parent="1" vertex="1">
          <mxGeometry x="180" y="359.94000000000005" width="40" height="20" as="geometry" />
        </mxCell>
        <mxCell id="ppWKIRa7KteUTko_k6aL-126" value="5" style="text;html=1;align=center;verticalAlign=middle;whiteSpace=wrap;rounded=0;fillColor=#dae8fc;strokeColor=#6c8ebf;fontSize=14;fontColor=#333333;" parent="1" vertex="1">
          <mxGeometry x="180" y="379.94000000000005" width="40" height="20" as="geometry" />
        </mxCell>
        <mxCell id="ppWKIRa7KteUTko_k6aL-127" value="1" style="text;html=1;align=center;verticalAlign=middle;whiteSpace=wrap;rounded=0;fillColor=#dae8fc;strokeColor=#6c8ebf;fontSize=14;fontColor=#333333;" parent="1" vertex="1">
          <mxGeometry x="180" y="399.94000000000005" width="40" height="20" as="geometry" />
        </mxCell>
        <mxCell id="ppWKIRa7KteUTko_k6aL-128" value="5" style="text;html=1;align=center;verticalAlign=middle;whiteSpace=wrap;rounded=0;fillColor=#dae8fc;strokeColor=#6c8ebf;fontSize=14;fontColor=#333333;" parent="1" vertex="1">
          <mxGeometry x="180" y="419.94000000000005" width="40" height="20" as="geometry" />
        </mxCell>
        <mxCell id="ppWKIRa7KteUTko_k6aL-129" value="2" style="text;html=1;align=center;verticalAlign=middle;whiteSpace=wrap;rounded=0;fillColor=#dae8fc;strokeColor=#6c8ebf;fontSize=14;fontColor=#333333;" parent="1" vertex="1">
          <mxGeometry x="180" y="439.94000000000005" width="40" height="20" as="geometry" />
        </mxCell>
        <mxCell id="ppWKIRa7KteUTko_k6aL-130" value="5" style="text;html=1;align=center;verticalAlign=middle;whiteSpace=wrap;rounded=0;fillColor=#dae8fc;strokeColor=#6c8ebf;fontSize=14;fontColor=#333333;" parent="1" vertex="1">
          <mxGeometry x="180" y="459.94000000000005" width="40" height="20" as="geometry" />
        </mxCell>
        <mxCell id="ppWKIRa7KteUTko_k6aL-131" value="5" style="text;html=1;align=center;verticalAlign=middle;whiteSpace=wrap;rounded=0;fillColor=#dae8fc;strokeColor=#6c8ebf;fontSize=14;fontColor=#333333;" parent="1" vertex="1">
          <mxGeometry x="180" y="479.94000000000005" width="40" height="20" as="geometry" />
        </mxCell>
        <mxCell id="ppWKIRa7KteUTko_k6aL-132" value="5" style="text;html=1;align=center;verticalAlign=middle;whiteSpace=wrap;rounded=0;fillColor=#dae8fc;strokeColor=#6c8ebf;fontSize=14;fontColor=#333333;" parent="1" vertex="1">
          <mxGeometry x="180" y="499.94000000000005" width="40" height="20" as="geometry" />
        </mxCell>
        <mxCell id="ppWKIRa7KteUTko_k6aL-133" value="5" style="text;html=1;align=center;verticalAlign=middle;whiteSpace=wrap;rounded=0;fillColor=#dae8fc;strokeColor=#6c8ebf;fontSize=14;fontColor=#333333;" parent="1" vertex="1">
          <mxGeometry x="180" y="519.94" width="40" height="20" as="geometry" />
        </mxCell>
        <mxCell id="ppWKIRa7KteUTko_k6aL-134" value="5" style="text;html=1;align=center;verticalAlign=middle;whiteSpace=wrap;rounded=0;fillColor=#dae8fc;strokeColor=#6c8ebf;fontSize=14;fontColor=#333333;" parent="1" vertex="1">
          <mxGeometry x="180" y="539.94" width="40" height="20" as="geometry" />
        </mxCell>
        <mxCell id="ppWKIRa7KteUTko_k6aL-135" value="5" style="text;html=1;align=center;verticalAlign=middle;whiteSpace=wrap;rounded=0;fillColor=#dae8fc;strokeColor=#6c8ebf;fontSize=14;fontColor=#333333;" parent="1" vertex="1">
          <mxGeometry x="180" y="559.94" width="40" height="20" as="geometry" />
        </mxCell>
        <mxCell id="YTAvljLb_3T_4oYTRKrc-1" value="t" style="text;html=1;align=center;verticalAlign=middle;whiteSpace=wrap;rounded=0;fillColor=#f5f5f5;strokeColor=#666666;fontSize=14;fontColor=#333333;" parent="1" vertex="1">
          <mxGeometry x="260" y="59.94" width="40" height="40" as="geometry" />
        </mxCell>
        <mxCell id="YTAvljLb_3T_4oYTRKrc-2" value="o" style="text;html=1;align=center;verticalAlign=middle;whiteSpace=wrap;rounded=0;fillColor=#f5f5f5;strokeColor=#666666;fontSize=14;fontColor=#333333;" parent="1" vertex="1">
          <mxGeometry x="300" y="59.94" width="40" height="40" as="geometry" />
        </mxCell>
        <mxCell id="YTAvljLb_3T_4oYTRKrc-3" value="r" style="text;html=1;align=center;verticalAlign=middle;whiteSpace=wrap;rounded=0;fillColor=#f5f5f5;strokeColor=#666666;fontSize=14;fontColor=#333333;" parent="1" vertex="1">
          <mxGeometry x="340" y="59.94" width="40" height="40" as="geometry" />
        </mxCell>
        <mxCell id="YTAvljLb_3T_4oYTRKrc-4" value="n" style="text;html=1;align=center;verticalAlign=middle;whiteSpace=wrap;rounded=0;fillColor=#f5f5f5;strokeColor=#666666;fontSize=14;fontColor=#333333;" parent="1" vertex="1">
          <mxGeometry x="380" y="59.94" width="40" height="40" as="geometry" />
        </mxCell>
        <mxCell id="YTAvljLb_3T_4oYTRKrc-5" value="word" style="text;html=1;align=center;verticalAlign=middle;whiteSpace=wrap;rounded=0;fontSize=10;" parent="1" vertex="1">
          <mxGeometry x="260" y="99.94" width="160" height="20" as="geometry" />
        </mxCell>
      </root>
    </mxGraphModel>
  </diagram>
  <diagram name="2" id="MT5O9i_2UncMAVttdx2T">
    <mxGraphModel dx="1430" dy="849" grid="1" gridSize="10" guides="1" tooltips="1" connect="1" arrows="1" fold="1" page="1" pageScale="1" pageWidth="410" pageHeight="670" math="0" shadow="0">
      <root>
        <mxCell id="RNqVAzc9ZsHvKWL-8-Pk-0" />
        <mxCell id="RNqVAzc9ZsHvKWL-8-Pk-1" parent="RNqVAzc9ZsHvKWL-8-Pk-0" />
        <mxCell id="O4FN5DBUwR897UNfXQ6D-0" style="edgeStyle=orthogonalEdgeStyle;rounded=0;orthogonalLoop=1;jettySize=auto;html=1;exitX=0.5;exitY=0;exitDx=0;exitDy=0;entryX=0;entryY=0.5;entryDx=0;entryDy=0;fillColor=#dae8fc;strokeColor=#6c8ebf;" parent="RNqVAzc9ZsHvKWL-8-Pk-1" source="8Fkisn2mRJD3hgL310Nd-0" target="RNqVAzc9ZsHvKWL-8-Pk-76" edge="1">
          <mxGeometry relative="1" as="geometry">
            <Array as="points">
              <mxPoint x="230" y="70" />
              <mxPoint x="70" y="70" />
              <mxPoint x="70" y="480" />
            </Array>
          </mxGeometry>
        </mxCell>
        <mxCell id="O4FN5DBUwR897UNfXQ6D-1" style="edgeStyle=orthogonalEdgeStyle;rounded=0;orthogonalLoop=1;jettySize=auto;html=1;exitX=0.5;exitY=0;exitDx=0;exitDy=0;entryX=0;entryY=0.5;entryDx=0;entryDy=0;fillColor=#d5e8d4;strokeColor=#82b366;" parent="RNqVAzc9ZsHvKWL-8-Pk-1" source="8Fkisn2mRJD3hgL310Nd-1" target="RNqVAzc9ZsHvKWL-8-Pk-71" edge="1">
          <mxGeometry relative="1" as="geometry">
            <Array as="points">
              <mxPoint x="270" y="60" />
              <mxPoint x="60" y="60" />
              <mxPoint x="60" y="380" />
            </Array>
          </mxGeometry>
        </mxCell>
        <mxCell id="O4FN5DBUwR897UNfXQ6D-2" style="edgeStyle=orthogonalEdgeStyle;rounded=0;orthogonalLoop=1;jettySize=auto;html=1;exitX=0.5;exitY=0;exitDx=0;exitDy=0;entryX=0;entryY=0.5;entryDx=0;entryDy=0;fillColor=#ffe6cc;strokeColor=#d79b00;" parent="RNqVAzc9ZsHvKWL-8-Pk-1" source="8Fkisn2mRJD3hgL310Nd-2" target="RNqVAzc9ZsHvKWL-8-Pk-74" edge="1">
          <mxGeometry relative="1" as="geometry">
            <Array as="points">
              <mxPoint x="310" y="50" />
              <mxPoint x="50" y="50" />
              <mxPoint x="50" y="440" />
            </Array>
          </mxGeometry>
        </mxCell>
        <mxCell id="O4FN5DBUwR897UNfXQ6D-3" style="edgeStyle=orthogonalEdgeStyle;rounded=0;orthogonalLoop=1;jettySize=auto;html=1;exitX=0.5;exitY=0;exitDx=0;exitDy=0;entryX=0;entryY=0.5;entryDx=0;entryDy=0;fillColor=#fff2cc;strokeColor=#d6b656;" parent="RNqVAzc9ZsHvKWL-8-Pk-1" source="8Fkisn2mRJD3hgL310Nd-3" target="RNqVAzc9ZsHvKWL-8-Pk-70" edge="1">
          <mxGeometry relative="1" as="geometry">
            <Array as="points">
              <mxPoint x="350" y="40" />
              <mxPoint x="40" y="40" />
              <mxPoint x="40" y="360" />
            </Array>
          </mxGeometry>
        </mxCell>
        <mxCell id="RNqVAzc9ZsHvKWL-8-Pk-56" value="a" style="text;html=1;align=center;verticalAlign=middle;whiteSpace=wrap;rounded=0;fillColor=#f5f5f5;strokeColor=#666666;fontSize=14;fontColor=#333333;" parent="RNqVAzc9ZsHvKWL-8-Pk-1" vertex="1">
          <mxGeometry x="90" y="90.03" width="40" height="20" as="geometry" />
        </mxCell>
        <mxCell id="RNqVAzc9ZsHvKWL-8-Pk-57" value="counts" style="text;html=1;align=center;verticalAlign=middle;whiteSpace=wrap;rounded=0;fontSize=10;" parent="RNqVAzc9ZsHvKWL-8-Pk-1" vertex="1">
          <mxGeometry x="90" y="610.03" width="80" height="20" as="geometry" />
        </mxCell>
        <mxCell id="RNqVAzc9ZsHvKWL-8-Pk-58" value="b" style="text;html=1;align=center;verticalAlign=middle;whiteSpace=wrap;rounded=0;fillColor=#f5f5f5;strokeColor=#666666;fontSize=14;fontColor=#333333;" parent="RNqVAzc9ZsHvKWL-8-Pk-1" vertex="1">
          <mxGeometry x="90" y="110.03" width="40" height="20" as="geometry" />
        </mxCell>
        <mxCell id="RNqVAzc9ZsHvKWL-8-Pk-59" value="c" style="text;html=1;align=center;verticalAlign=middle;whiteSpace=wrap;rounded=0;fillColor=#f5f5f5;strokeColor=#666666;fontSize=14;fontColor=#333333;" parent="RNqVAzc9ZsHvKWL-8-Pk-1" vertex="1">
          <mxGeometry x="90" y="130.03" width="40" height="20" as="geometry" />
        </mxCell>
        <mxCell id="RNqVAzc9ZsHvKWL-8-Pk-60" value="d" style="text;html=1;align=center;verticalAlign=middle;whiteSpace=wrap;rounded=0;fillColor=#f5f5f5;strokeColor=#666666;fontSize=14;fontColor=#333333;" parent="RNqVAzc9ZsHvKWL-8-Pk-1" vertex="1">
          <mxGeometry x="90" y="150.03" width="40" height="20" as="geometry" />
        </mxCell>
        <mxCell id="RNqVAzc9ZsHvKWL-8-Pk-61" value="e" style="text;html=1;align=center;verticalAlign=middle;whiteSpace=wrap;rounded=0;fillColor=#f5f5f5;strokeColor=#666666;fontSize=14;fontColor=#333333;" parent="RNqVAzc9ZsHvKWL-8-Pk-1" vertex="1">
          <mxGeometry x="90" y="170.03" width="40" height="20" as="geometry" />
        </mxCell>
        <mxCell id="RNqVAzc9ZsHvKWL-8-Pk-62" value="f" style="text;html=1;align=center;verticalAlign=middle;whiteSpace=wrap;rounded=0;fillColor=#f5f5f5;strokeColor=#666666;fontSize=14;fontColor=#333333;" parent="RNqVAzc9ZsHvKWL-8-Pk-1" vertex="1">
          <mxGeometry x="90" y="190.03" width="40" height="20" as="geometry" />
        </mxCell>
        <mxCell id="RNqVAzc9ZsHvKWL-8-Pk-63" value="g" style="text;html=1;align=center;verticalAlign=middle;whiteSpace=wrap;rounded=0;fillColor=#f5f5f5;strokeColor=#666666;fontSize=14;fontColor=#333333;" parent="RNqVAzc9ZsHvKWL-8-Pk-1" vertex="1">
          <mxGeometry x="90" y="210.03" width="40" height="20" as="geometry" />
        </mxCell>
        <mxCell id="RNqVAzc9ZsHvKWL-8-Pk-64" value="h" style="text;html=1;align=center;verticalAlign=middle;whiteSpace=wrap;rounded=0;fillColor=#f5f5f5;strokeColor=#666666;fontSize=14;fontColor=#333333;" parent="RNqVAzc9ZsHvKWL-8-Pk-1" vertex="1">
          <mxGeometry x="90" y="230.03" width="40" height="20" as="geometry" />
        </mxCell>
        <mxCell id="RNqVAzc9ZsHvKWL-8-Pk-65" value="i" style="text;html=1;align=center;verticalAlign=middle;whiteSpace=wrap;rounded=0;fillColor=#f5f5f5;strokeColor=#666666;fontSize=14;fontColor=#333333;" parent="RNqVAzc9ZsHvKWL-8-Pk-1" vertex="1">
          <mxGeometry x="90" y="250.03" width="40" height="20" as="geometry" />
        </mxCell>
        <mxCell id="RNqVAzc9ZsHvKWL-8-Pk-66" value="j" style="text;html=1;align=center;verticalAlign=middle;whiteSpace=wrap;rounded=0;fillColor=#f5f5f5;strokeColor=#666666;fontSize=14;fontColor=#333333;" parent="RNqVAzc9ZsHvKWL-8-Pk-1" vertex="1">
          <mxGeometry x="90" y="270.03" width="40" height="20" as="geometry" />
        </mxCell>
        <mxCell id="RNqVAzc9ZsHvKWL-8-Pk-67" value="k" style="text;html=1;align=center;verticalAlign=middle;whiteSpace=wrap;rounded=0;fillColor=#f5f5f5;strokeColor=#666666;fontSize=14;fontColor=#333333;" parent="RNqVAzc9ZsHvKWL-8-Pk-1" vertex="1">
          <mxGeometry x="90" y="290.0300000000001" width="40" height="20" as="geometry" />
        </mxCell>
        <mxCell id="RNqVAzc9ZsHvKWL-8-Pk-68" value="l" style="text;html=1;align=center;verticalAlign=middle;whiteSpace=wrap;rounded=0;fillColor=#f5f5f5;strokeColor=#666666;fontSize=14;fontColor=#333333;" parent="RNqVAzc9ZsHvKWL-8-Pk-1" vertex="1">
          <mxGeometry x="90" y="310.0300000000001" width="40" height="20" as="geometry" />
        </mxCell>
        <mxCell id="RNqVAzc9ZsHvKWL-8-Pk-69" value="m" style="text;html=1;align=center;verticalAlign=middle;whiteSpace=wrap;rounded=0;fillColor=#f5f5f5;strokeColor=#666666;fontSize=14;fontColor=#333333;" parent="RNqVAzc9ZsHvKWL-8-Pk-1" vertex="1">
          <mxGeometry x="90" y="330.0300000000001" width="40" height="20" as="geometry" />
        </mxCell>
        <mxCell id="RNqVAzc9ZsHvKWL-8-Pk-70" value="n" style="text;html=1;align=center;verticalAlign=middle;whiteSpace=wrap;rounded=0;fillColor=#fff2cc;strokeColor=#d6b656;fontSize=14;fontColor=#333333;" parent="RNqVAzc9ZsHvKWL-8-Pk-1" vertex="1">
          <mxGeometry x="90" y="350.0300000000001" width="40" height="20" as="geometry" />
        </mxCell>
        <mxCell id="RNqVAzc9ZsHvKWL-8-Pk-71" value="o" style="text;html=1;align=center;verticalAlign=middle;whiteSpace=wrap;rounded=0;fillColor=#d5e8d4;strokeColor=#82b366;fontSize=14;fontColor=#333333;" parent="RNqVAzc9ZsHvKWL-8-Pk-1" vertex="1">
          <mxGeometry x="90" y="370.0300000000001" width="40" height="20" as="geometry" />
        </mxCell>
        <mxCell id="RNqVAzc9ZsHvKWL-8-Pk-72" value="p" style="text;html=1;align=center;verticalAlign=middle;whiteSpace=wrap;rounded=0;fillColor=#f5f5f5;strokeColor=#666666;fontSize=14;fontColor=#333333;" parent="RNqVAzc9ZsHvKWL-8-Pk-1" vertex="1">
          <mxGeometry x="90" y="390.0300000000001" width="40" height="20" as="geometry" />
        </mxCell>
        <mxCell id="RNqVAzc9ZsHvKWL-8-Pk-73" value="q" style="text;html=1;align=center;verticalAlign=middle;whiteSpace=wrap;rounded=0;fillColor=#f5f5f5;strokeColor=#666666;fontSize=14;fontColor=#333333;" parent="RNqVAzc9ZsHvKWL-8-Pk-1" vertex="1">
          <mxGeometry x="90" y="410.0300000000001" width="40" height="20" as="geometry" />
        </mxCell>
        <mxCell id="RNqVAzc9ZsHvKWL-8-Pk-74" value="r" style="text;html=1;align=center;verticalAlign=middle;whiteSpace=wrap;rounded=0;fillColor=#ffe6cc;strokeColor=#d79b00;fontSize=14;fontColor=#333333;" parent="RNqVAzc9ZsHvKWL-8-Pk-1" vertex="1">
          <mxGeometry x="90" y="430.0300000000001" width="40" height="20" as="geometry" />
        </mxCell>
        <mxCell id="RNqVAzc9ZsHvKWL-8-Pk-75" value="s" style="text;html=1;align=center;verticalAlign=middle;whiteSpace=wrap;rounded=0;fillColor=#f5f5f5;strokeColor=#666666;fontSize=14;fontColor=#333333;" parent="RNqVAzc9ZsHvKWL-8-Pk-1" vertex="1">
          <mxGeometry x="90" y="450.0300000000001" width="40" height="20" as="geometry" />
        </mxCell>
        <mxCell id="RNqVAzc9ZsHvKWL-8-Pk-76" value="t" style="text;html=1;align=center;verticalAlign=middle;whiteSpace=wrap;rounded=0;fillColor=#dae8fc;strokeColor=#6c8ebf;fontSize=14;fontColor=#333333;" parent="RNqVAzc9ZsHvKWL-8-Pk-1" vertex="1">
          <mxGeometry x="90" y="470.0300000000001" width="40" height="20" as="geometry" />
        </mxCell>
        <mxCell id="RNqVAzc9ZsHvKWL-8-Pk-77" value="u" style="text;html=1;align=center;verticalAlign=middle;whiteSpace=wrap;rounded=0;fillColor=#f5f5f5;strokeColor=#666666;fontSize=14;fontColor=#333333;" parent="RNqVAzc9ZsHvKWL-8-Pk-1" vertex="1">
          <mxGeometry x="90" y="490.0300000000001" width="40" height="20" as="geometry" />
        </mxCell>
        <mxCell id="RNqVAzc9ZsHvKWL-8-Pk-78" value="v" style="text;html=1;align=center;verticalAlign=middle;whiteSpace=wrap;rounded=0;fillColor=#f5f5f5;strokeColor=#666666;fontSize=14;fontColor=#333333;" parent="RNqVAzc9ZsHvKWL-8-Pk-1" vertex="1">
          <mxGeometry x="90" y="510.0300000000001" width="40" height="20" as="geometry" />
        </mxCell>
        <mxCell id="RNqVAzc9ZsHvKWL-8-Pk-79" value="w" style="text;html=1;align=center;verticalAlign=middle;whiteSpace=wrap;rounded=0;fillColor=#f5f5f5;strokeColor=#666666;fontSize=14;fontColor=#333333;" parent="RNqVAzc9ZsHvKWL-8-Pk-1" vertex="1">
          <mxGeometry x="90" y="530.0300000000001" width="40" height="20" as="geometry" />
        </mxCell>
        <mxCell id="RNqVAzc9ZsHvKWL-8-Pk-80" value="x" style="text;html=1;align=center;verticalAlign=middle;whiteSpace=wrap;rounded=0;fillColor=#f5f5f5;strokeColor=#666666;fontSize=14;fontColor=#333333;" parent="RNqVAzc9ZsHvKWL-8-Pk-1" vertex="1">
          <mxGeometry x="90" y="550.0300000000001" width="40" height="20" as="geometry" />
        </mxCell>
        <mxCell id="RNqVAzc9ZsHvKWL-8-Pk-81" value="y" style="text;html=1;align=center;verticalAlign=middle;whiteSpace=wrap;rounded=0;fillColor=#f5f5f5;strokeColor=#666666;fontSize=14;fontColor=#333333;" parent="RNqVAzc9ZsHvKWL-8-Pk-1" vertex="1">
          <mxGeometry x="90" y="570.03" width="40" height="20" as="geometry" />
        </mxCell>
        <mxCell id="RNqVAzc9ZsHvKWL-8-Pk-82" value="z" style="text;html=1;align=center;verticalAlign=middle;whiteSpace=wrap;rounded=0;fillColor=#f5f5f5;strokeColor=#666666;fontSize=14;fontColor=#333333;" parent="RNqVAzc9ZsHvKWL-8-Pk-1" vertex="1">
          <mxGeometry x="90" y="590.03" width="40" height="20" as="geometry" />
        </mxCell>
        <mxCell id="RNqVAzc9ZsHvKWL-8-Pk-109" value="1" style="text;html=1;align=center;verticalAlign=middle;whiteSpace=wrap;rounded=0;fillColor=#f5f5f5;strokeColor=#666666;fontSize=14;fontColor=#333333;" parent="RNqVAzc9ZsHvKWL-8-Pk-1" vertex="1">
          <mxGeometry x="130" y="90.03" width="40" height="20" as="geometry" />
        </mxCell>
        <mxCell id="RNqVAzc9ZsHvKWL-8-Pk-110" value="3" style="text;html=1;align=center;verticalAlign=middle;whiteSpace=wrap;rounded=0;fillColor=#f5f5f5;strokeColor=#666666;fontSize=14;fontColor=#333333;" parent="RNqVAzc9ZsHvKWL-8-Pk-1" vertex="1">
          <mxGeometry x="130" y="110.03" width="40" height="20" as="geometry" />
        </mxCell>
        <mxCell id="RNqVAzc9ZsHvKWL-8-Pk-111" value="1" style="text;html=1;align=center;verticalAlign=middle;whiteSpace=wrap;rounded=0;fillColor=#f5f5f5;strokeColor=#666666;fontSize=14;fontColor=#333333;" parent="RNqVAzc9ZsHvKWL-8-Pk-1" vertex="1">
          <mxGeometry x="130" y="130.03" width="40" height="20" as="geometry" />
        </mxCell>
        <mxCell id="RNqVAzc9ZsHvKWL-8-Pk-112" value="3" style="text;html=1;align=center;verticalAlign=middle;whiteSpace=wrap;rounded=0;fillColor=#f5f5f5;strokeColor=#666666;fontSize=14;fontColor=#333333;" parent="RNqVAzc9ZsHvKWL-8-Pk-1" vertex="1">
          <mxGeometry x="130" y="150.03" width="40" height="20" as="geometry" />
        </mxCell>
        <mxCell id="RNqVAzc9ZsHvKWL-8-Pk-113" value="1" style="text;html=1;align=center;verticalAlign=middle;whiteSpace=wrap;rounded=0;fillColor=#f5f5f5;strokeColor=#666666;fontSize=14;fontColor=#333333;" parent="RNqVAzc9ZsHvKWL-8-Pk-1" vertex="1">
          <mxGeometry x="130" y="170.03" width="40" height="20" as="geometry" />
        </mxCell>
        <mxCell id="RNqVAzc9ZsHvKWL-8-Pk-114" value="4" style="text;html=1;align=center;verticalAlign=middle;whiteSpace=wrap;rounded=0;fillColor=#f5f5f5;strokeColor=#666666;fontSize=14;fontColor=#333333;" parent="RNqVAzc9ZsHvKWL-8-Pk-1" vertex="1">
          <mxGeometry x="130" y="190.03" width="40" height="20" as="geometry" />
        </mxCell>
        <mxCell id="RNqVAzc9ZsHvKWL-8-Pk-115" value="1" style="text;html=1;align=center;verticalAlign=middle;whiteSpace=wrap;rounded=0;fillColor=#f5f5f5;strokeColor=#666666;fontSize=14;fontColor=#333333;" parent="RNqVAzc9ZsHvKWL-8-Pk-1" vertex="1">
          <mxGeometry x="130" y="210.03" width="40" height="20" as="geometry" />
        </mxCell>
        <mxCell id="RNqVAzc9ZsHvKWL-8-Pk-116" value="3" style="text;html=1;align=center;verticalAlign=middle;whiteSpace=wrap;rounded=0;fillColor=#f5f5f5;strokeColor=#666666;fontSize=14;fontColor=#333333;" parent="RNqVAzc9ZsHvKWL-8-Pk-1" vertex="1">
          <mxGeometry x="130" y="230.03" width="40" height="20" as="geometry" />
        </mxCell>
        <mxCell id="RNqVAzc9ZsHvKWL-8-Pk-117" value="2" style="text;html=1;align=center;verticalAlign=middle;whiteSpace=wrap;rounded=0;fillColor=#f5f5f5;strokeColor=#666666;fontSize=14;fontColor=#333333;" parent="RNqVAzc9ZsHvKWL-8-Pk-1" vertex="1">
          <mxGeometry x="130" y="250.03" width="40" height="20" as="geometry" />
        </mxCell>
        <mxCell id="RNqVAzc9ZsHvKWL-8-Pk-118" value="5" style="text;html=1;align=center;verticalAlign=middle;whiteSpace=wrap;rounded=0;fillColor=#f5f5f5;strokeColor=#666666;fontSize=14;fontColor=#333333;" parent="RNqVAzc9ZsHvKWL-8-Pk-1" vertex="1">
          <mxGeometry x="130" y="270.03" width="40" height="20" as="geometry" />
        </mxCell>
        <mxCell id="RNqVAzc9ZsHvKWL-8-Pk-119" value="5" style="text;html=1;align=center;verticalAlign=middle;whiteSpace=wrap;rounded=0;fillColor=#f5f5f5;strokeColor=#666666;fontSize=14;fontColor=#333333;" parent="RNqVAzc9ZsHvKWL-8-Pk-1" vertex="1">
          <mxGeometry x="130" y="290.0300000000001" width="40" height="20" as="geometry" />
        </mxCell>
        <mxCell id="RNqVAzc9ZsHvKWL-8-Pk-120" value="5" style="text;html=1;align=center;verticalAlign=middle;whiteSpace=wrap;rounded=0;fillColor=#f5f5f5;strokeColor=#666666;fontSize=14;fontColor=#333333;" parent="RNqVAzc9ZsHvKWL-8-Pk-1" vertex="1">
          <mxGeometry x="130" y="310.0300000000001" width="40" height="20" as="geometry" />
        </mxCell>
        <mxCell id="RNqVAzc9ZsHvKWL-8-Pk-121" value="5" style="text;html=1;align=center;verticalAlign=middle;whiteSpace=wrap;rounded=0;fillColor=#f5f5f5;strokeColor=#666666;fontSize=14;fontColor=#333333;" parent="RNqVAzc9ZsHvKWL-8-Pk-1" vertex="1">
          <mxGeometry x="130" y="330.0300000000001" width="40" height="20" as="geometry" />
        </mxCell>
        <mxCell id="RNqVAzc9ZsHvKWL-8-Pk-122" value="1" style="text;html=1;align=center;verticalAlign=middle;whiteSpace=wrap;rounded=0;fillColor=#f5f5f5;strokeColor=#666666;fontSize=14;fontColor=#333333;" parent="RNqVAzc9ZsHvKWL-8-Pk-1" vertex="1">
          <mxGeometry x="130" y="350.0300000000001" width="40" height="20" as="geometry" />
        </mxCell>
        <mxCell id="RNqVAzc9ZsHvKWL-8-Pk-123" value="1" style="text;html=1;align=center;verticalAlign=middle;whiteSpace=wrap;rounded=0;fillColor=#f5f5f5;strokeColor=#666666;fontSize=14;fontColor=#333333;" parent="RNqVAzc9ZsHvKWL-8-Pk-1" vertex="1">
          <mxGeometry x="130" y="370.0300000000001" width="40" height="20" as="geometry" />
        </mxCell>
        <mxCell id="RNqVAzc9ZsHvKWL-8-Pk-124" value="5" style="text;html=1;align=center;verticalAlign=middle;whiteSpace=wrap;rounded=0;fillColor=#f5f5f5;strokeColor=#666666;fontSize=14;fontColor=#333333;" parent="RNqVAzc9ZsHvKWL-8-Pk-1" vertex="1">
          <mxGeometry x="130" y="390.0300000000001" width="40" height="20" as="geometry" />
        </mxCell>
        <mxCell id="RNqVAzc9ZsHvKWL-8-Pk-125" value="5" style="text;html=1;align=center;verticalAlign=middle;whiteSpace=wrap;rounded=0;fillColor=#f5f5f5;strokeColor=#666666;fontSize=14;fontColor=#333333;" parent="RNqVAzc9ZsHvKWL-8-Pk-1" vertex="1">
          <mxGeometry x="130" y="410.0300000000001" width="40" height="20" as="geometry" />
        </mxCell>
        <mxCell id="RNqVAzc9ZsHvKWL-8-Pk-126" value="1" style="text;html=1;align=center;verticalAlign=middle;whiteSpace=wrap;rounded=0;fillColor=#f5f5f5;strokeColor=#666666;fontSize=14;fontColor=#333333;" parent="RNqVAzc9ZsHvKWL-8-Pk-1" vertex="1">
          <mxGeometry x="130" y="430.0300000000001" width="40" height="20" as="geometry" />
        </mxCell>
        <mxCell id="RNqVAzc9ZsHvKWL-8-Pk-127" value="5" style="text;html=1;align=center;verticalAlign=middle;whiteSpace=wrap;rounded=0;fillColor=#f5f5f5;strokeColor=#666666;fontSize=14;fontColor=#333333;" parent="RNqVAzc9ZsHvKWL-8-Pk-1" vertex="1">
          <mxGeometry x="130" y="450.0300000000001" width="40" height="20" as="geometry" />
        </mxCell>
        <mxCell id="RNqVAzc9ZsHvKWL-8-Pk-128" value="2" style="text;html=1;align=center;verticalAlign=middle;whiteSpace=wrap;rounded=0;fillColor=#f5f5f5;strokeColor=#666666;fontSize=14;fontColor=#333333;" parent="RNqVAzc9ZsHvKWL-8-Pk-1" vertex="1">
          <mxGeometry x="130" y="470.0300000000001" width="40" height="20" as="geometry" />
        </mxCell>
        <mxCell id="RNqVAzc9ZsHvKWL-8-Pk-129" value="5" style="text;html=1;align=center;verticalAlign=middle;whiteSpace=wrap;rounded=0;fillColor=#f5f5f5;strokeColor=#666666;fontSize=14;fontColor=#333333;" parent="RNqVAzc9ZsHvKWL-8-Pk-1" vertex="1">
          <mxGeometry x="130" y="490.0300000000001" width="40" height="20" as="geometry" />
        </mxCell>
        <mxCell id="RNqVAzc9ZsHvKWL-8-Pk-130" value="5" style="text;html=1;align=center;verticalAlign=middle;whiteSpace=wrap;rounded=0;fillColor=#f5f5f5;strokeColor=#666666;fontSize=14;fontColor=#333333;" parent="RNqVAzc9ZsHvKWL-8-Pk-1" vertex="1">
          <mxGeometry x="130" y="510.0300000000001" width="40" height="20" as="geometry" />
        </mxCell>
        <mxCell id="RNqVAzc9ZsHvKWL-8-Pk-131" value="5" style="text;html=1;align=center;verticalAlign=middle;whiteSpace=wrap;rounded=0;fillColor=#f5f5f5;strokeColor=#666666;fontSize=14;fontColor=#333333;" parent="RNqVAzc9ZsHvKWL-8-Pk-1" vertex="1">
          <mxGeometry x="130" y="530.0300000000001" width="40" height="20" as="geometry" />
        </mxCell>
        <mxCell id="RNqVAzc9ZsHvKWL-8-Pk-132" value="5" style="text;html=1;align=center;verticalAlign=middle;whiteSpace=wrap;rounded=0;fillColor=#f5f5f5;strokeColor=#666666;fontSize=14;fontColor=#333333;" parent="RNqVAzc9ZsHvKWL-8-Pk-1" vertex="1">
          <mxGeometry x="130" y="550.0300000000001" width="40" height="20" as="geometry" />
        </mxCell>
        <mxCell id="RNqVAzc9ZsHvKWL-8-Pk-133" value="5" style="text;html=1;align=center;verticalAlign=middle;whiteSpace=wrap;rounded=0;fillColor=#f5f5f5;strokeColor=#666666;fontSize=14;fontColor=#333333;" parent="RNqVAzc9ZsHvKWL-8-Pk-1" vertex="1">
          <mxGeometry x="130" y="570.03" width="40" height="20" as="geometry" />
        </mxCell>
        <mxCell id="RNqVAzc9ZsHvKWL-8-Pk-134" value="5" style="text;html=1;align=center;verticalAlign=middle;whiteSpace=wrap;rounded=0;fillColor=#f5f5f5;strokeColor=#666666;fontSize=14;fontColor=#333333;" parent="RNqVAzc9ZsHvKWL-8-Pk-1" vertex="1">
          <mxGeometry x="130" y="590.03" width="40" height="20" as="geometry" />
        </mxCell>
        <mxCell id="8Fkisn2mRJD3hgL310Nd-0" value="t" style="text;html=1;align=center;verticalAlign=middle;whiteSpace=wrap;rounded=0;fillColor=#dae8fc;strokeColor=#6c8ebf;fontSize=14;fontColor=#333333;" parent="RNqVAzc9ZsHvKWL-8-Pk-1" vertex="1">
          <mxGeometry x="210" y="90.03" width="40" height="40" as="geometry" />
        </mxCell>
        <mxCell id="8Fkisn2mRJD3hgL310Nd-1" value="o" style="text;html=1;align=center;verticalAlign=middle;whiteSpace=wrap;rounded=0;fillColor=#d5e8d4;strokeColor=#82b366;fontSize=14;fontColor=#333333;" parent="RNqVAzc9ZsHvKWL-8-Pk-1" vertex="1">
          <mxGeometry x="250" y="90.03" width="40" height="40" as="geometry" />
        </mxCell>
        <mxCell id="8Fkisn2mRJD3hgL310Nd-2" value="r" style="text;html=1;align=center;verticalAlign=middle;whiteSpace=wrap;rounded=0;fillColor=#ffe6cc;strokeColor=#d79b00;fontSize=14;fontColor=#333333;" parent="RNqVAzc9ZsHvKWL-8-Pk-1" vertex="1">
          <mxGeometry x="290" y="90.03" width="40" height="40" as="geometry" />
        </mxCell>
        <mxCell id="8Fkisn2mRJD3hgL310Nd-3" value="n" style="text;html=1;align=center;verticalAlign=middle;whiteSpace=wrap;rounded=0;fillColor=#fff2cc;strokeColor=#d6b656;fontSize=14;fontColor=#333333;" parent="RNqVAzc9ZsHvKWL-8-Pk-1" vertex="1">
          <mxGeometry x="330" y="90.03" width="40" height="40" as="geometry" />
        </mxCell>
        <mxCell id="8Fkisn2mRJD3hgL310Nd-4" value="word" style="text;html=1;align=center;verticalAlign=middle;whiteSpace=wrap;rounded=0;fontSize=10;" parent="RNqVAzc9ZsHvKWL-8-Pk-1" vertex="1">
          <mxGeometry x="210" y="130.03" width="160" height="20" as="geometry" />
        </mxCell>
      </root>
    </mxGraphModel>
  </diagram>
  <diagram name="3" id="orTxCvT8c_JikqSvggbQ">
    <mxGraphModel dx="2074" dy="1231" grid="1" gridSize="10" guides="1" tooltips="1" connect="1" arrows="1" fold="1" page="1" pageScale="1" pageWidth="380" pageHeight="640" math="0" shadow="0">
      <root>
        <mxCell id="dxpx9FDBymk5hEzbPDvv-0" />
        <mxCell id="dxpx9FDBymk5hEzbPDvv-1" parent="dxpx9FDBymk5hEzbPDvv-0" />
        <mxCell id="dxpx9FDBymk5hEzbPDvv-6" value="a" style="text;html=1;align=center;verticalAlign=middle;whiteSpace=wrap;rounded=0;fillColor=#f5f5f5;strokeColor=#666666;fontSize=14;fontColor=#333333;" parent="dxpx9FDBymk5hEzbPDvv-1" vertex="1">
          <mxGeometry x="40" y="60" width="40" height="20" as="geometry" />
        </mxCell>
        <mxCell id="dxpx9FDBymk5hEzbPDvv-7" value="counts" style="text;html=1;align=center;verticalAlign=middle;whiteSpace=wrap;rounded=0;fontSize=10;" parent="dxpx9FDBymk5hEzbPDvv-1" vertex="1">
          <mxGeometry x="40" y="580" width="80" height="20" as="geometry" />
        </mxCell>
        <mxCell id="dxpx9FDBymk5hEzbPDvv-8" value="b" style="text;html=1;align=center;verticalAlign=middle;whiteSpace=wrap;rounded=0;fillColor=#f5f5f5;strokeColor=#666666;fontSize=14;fontColor=#333333;" parent="dxpx9FDBymk5hEzbPDvv-1" vertex="1">
          <mxGeometry x="40" y="80" width="40" height="20" as="geometry" />
        </mxCell>
        <mxCell id="dxpx9FDBymk5hEzbPDvv-9" value="c" style="text;html=1;align=center;verticalAlign=middle;whiteSpace=wrap;rounded=0;fillColor=#f5f5f5;strokeColor=#666666;fontSize=14;fontColor=#333333;" parent="dxpx9FDBymk5hEzbPDvv-1" vertex="1">
          <mxGeometry x="40" y="100" width="40" height="20" as="geometry" />
        </mxCell>
        <mxCell id="dxpx9FDBymk5hEzbPDvv-10" value="d" style="text;html=1;align=center;verticalAlign=middle;whiteSpace=wrap;rounded=0;fillColor=#f5f5f5;strokeColor=#666666;fontSize=14;fontColor=#333333;" parent="dxpx9FDBymk5hEzbPDvv-1" vertex="1">
          <mxGeometry x="40" y="120" width="40" height="20" as="geometry" />
        </mxCell>
        <mxCell id="dxpx9FDBymk5hEzbPDvv-11" value="e" style="text;html=1;align=center;verticalAlign=middle;whiteSpace=wrap;rounded=0;fillColor=#f5f5f5;strokeColor=#666666;fontSize=14;fontColor=#333333;" parent="dxpx9FDBymk5hEzbPDvv-1" vertex="1">
          <mxGeometry x="40" y="140" width="40" height="20" as="geometry" />
        </mxCell>
        <mxCell id="dxpx9FDBymk5hEzbPDvv-12" value="f" style="text;html=1;align=center;verticalAlign=middle;whiteSpace=wrap;rounded=0;fillColor=#f5f5f5;strokeColor=#666666;fontSize=14;fontColor=#333333;" parent="dxpx9FDBymk5hEzbPDvv-1" vertex="1">
          <mxGeometry x="40" y="160" width="40" height="20" as="geometry" />
        </mxCell>
        <mxCell id="dxpx9FDBymk5hEzbPDvv-13" value="g" style="text;html=1;align=center;verticalAlign=middle;whiteSpace=wrap;rounded=0;fillColor=#f5f5f5;strokeColor=#666666;fontSize=14;fontColor=#333333;" parent="dxpx9FDBymk5hEzbPDvv-1" vertex="1">
          <mxGeometry x="40" y="180" width="40" height="20" as="geometry" />
        </mxCell>
        <mxCell id="dxpx9FDBymk5hEzbPDvv-14" value="h" style="text;html=1;align=center;verticalAlign=middle;whiteSpace=wrap;rounded=0;fillColor=#f5f5f5;strokeColor=#666666;fontSize=14;fontColor=#333333;" parent="dxpx9FDBymk5hEzbPDvv-1" vertex="1">
          <mxGeometry x="40" y="200" width="40" height="20" as="geometry" />
        </mxCell>
        <mxCell id="dxpx9FDBymk5hEzbPDvv-15" value="i" style="text;html=1;align=center;verticalAlign=middle;whiteSpace=wrap;rounded=0;fillColor=#f5f5f5;strokeColor=#666666;fontSize=14;fontColor=#333333;" parent="dxpx9FDBymk5hEzbPDvv-1" vertex="1">
          <mxGeometry x="40" y="220" width="40" height="20" as="geometry" />
        </mxCell>
        <mxCell id="dxpx9FDBymk5hEzbPDvv-16" value="j" style="text;html=1;align=center;verticalAlign=middle;whiteSpace=wrap;rounded=0;fillColor=#f5f5f5;strokeColor=#666666;fontSize=14;fontColor=#333333;" parent="dxpx9FDBymk5hEzbPDvv-1" vertex="1">
          <mxGeometry x="40" y="239.99999999999997" width="40" height="20" as="geometry" />
        </mxCell>
        <mxCell id="dxpx9FDBymk5hEzbPDvv-17" value="k" style="text;html=1;align=center;verticalAlign=middle;whiteSpace=wrap;rounded=0;fillColor=#f5f5f5;strokeColor=#666666;fontSize=14;fontColor=#333333;" parent="dxpx9FDBymk5hEzbPDvv-1" vertex="1">
          <mxGeometry x="40" y="260.0000000000001" width="40" height="20" as="geometry" />
        </mxCell>
        <mxCell id="dxpx9FDBymk5hEzbPDvv-18" value="l" style="text;html=1;align=center;verticalAlign=middle;whiteSpace=wrap;rounded=0;fillColor=#f5f5f5;strokeColor=#666666;fontSize=14;fontColor=#333333;" parent="dxpx9FDBymk5hEzbPDvv-1" vertex="1">
          <mxGeometry x="40" y="280.0000000000001" width="40" height="20" as="geometry" />
        </mxCell>
        <mxCell id="dxpx9FDBymk5hEzbPDvv-19" value="m" style="text;html=1;align=center;verticalAlign=middle;whiteSpace=wrap;rounded=0;fillColor=#f5f5f5;strokeColor=#666666;fontSize=14;fontColor=#333333;" parent="dxpx9FDBymk5hEzbPDvv-1" vertex="1">
          <mxGeometry x="40" y="300.0000000000001" width="40" height="20" as="geometry" />
        </mxCell>
        <mxCell id="dxpx9FDBymk5hEzbPDvv-20" value="n" style="text;html=1;align=center;verticalAlign=middle;whiteSpace=wrap;rounded=0;fillColor=#f5f5f5;strokeColor=#666666;fontSize=14;fontColor=#333333;" parent="dxpx9FDBymk5hEzbPDvv-1" vertex="1">
          <mxGeometry x="40" y="320.0000000000001" width="40" height="20" as="geometry" />
        </mxCell>
        <mxCell id="dxpx9FDBymk5hEzbPDvv-21" value="o" style="text;html=1;align=center;verticalAlign=middle;whiteSpace=wrap;rounded=0;fillColor=#f5f5f5;strokeColor=#666666;fontSize=14;fontColor=#333333;" parent="dxpx9FDBymk5hEzbPDvv-1" vertex="1">
          <mxGeometry x="40" y="340.0000000000001" width="40" height="20" as="geometry" />
        </mxCell>
        <mxCell id="dxpx9FDBymk5hEzbPDvv-22" value="p" style="text;html=1;align=center;verticalAlign=middle;whiteSpace=wrap;rounded=0;fillColor=#f5f5f5;strokeColor=#666666;fontSize=14;fontColor=#333333;" parent="dxpx9FDBymk5hEzbPDvv-1" vertex="1">
          <mxGeometry x="40" y="360.0000000000001" width="40" height="20" as="geometry" />
        </mxCell>
        <mxCell id="dxpx9FDBymk5hEzbPDvv-23" value="q" style="text;html=1;align=center;verticalAlign=middle;whiteSpace=wrap;rounded=0;fillColor=#f5f5f5;strokeColor=#666666;fontSize=14;fontColor=#333333;" parent="dxpx9FDBymk5hEzbPDvv-1" vertex="1">
          <mxGeometry x="40" y="380.0000000000001" width="40" height="20" as="geometry" />
        </mxCell>
        <mxCell id="dxpx9FDBymk5hEzbPDvv-24" value="r" style="text;html=1;align=center;verticalAlign=middle;whiteSpace=wrap;rounded=0;fillColor=#f5f5f5;strokeColor=#666666;fontSize=14;fontColor=#333333;" parent="dxpx9FDBymk5hEzbPDvv-1" vertex="1">
          <mxGeometry x="40" y="400.0000000000001" width="40" height="20" as="geometry" />
        </mxCell>
        <mxCell id="dxpx9FDBymk5hEzbPDvv-25" value="s" style="text;html=1;align=center;verticalAlign=middle;whiteSpace=wrap;rounded=0;fillColor=#f5f5f5;strokeColor=#666666;fontSize=14;fontColor=#333333;" parent="dxpx9FDBymk5hEzbPDvv-1" vertex="1">
          <mxGeometry x="40" y="420.0000000000001" width="40" height="20" as="geometry" />
        </mxCell>
        <mxCell id="dxpx9FDBymk5hEzbPDvv-26" value="t" style="text;html=1;align=center;verticalAlign=middle;whiteSpace=wrap;rounded=0;fillColor=#f5f5f5;strokeColor=#666666;fontSize=14;fontColor=#333333;" parent="dxpx9FDBymk5hEzbPDvv-1" vertex="1">
          <mxGeometry x="40" y="440.0000000000001" width="40" height="20" as="geometry" />
        </mxCell>
        <mxCell id="dxpx9FDBymk5hEzbPDvv-27" value="u" style="text;html=1;align=center;verticalAlign=middle;whiteSpace=wrap;rounded=0;fillColor=#f5f5f5;strokeColor=#666666;fontSize=14;fontColor=#333333;" parent="dxpx9FDBymk5hEzbPDvv-1" vertex="1">
          <mxGeometry x="40" y="460.0000000000001" width="40" height="20" as="geometry" />
        </mxCell>
        <mxCell id="dxpx9FDBymk5hEzbPDvv-28" value="v" style="text;html=1;align=center;verticalAlign=middle;whiteSpace=wrap;rounded=0;fillColor=#f5f5f5;strokeColor=#666666;fontSize=14;fontColor=#333333;" parent="dxpx9FDBymk5hEzbPDvv-1" vertex="1">
          <mxGeometry x="40" y="480.0000000000001" width="40" height="20" as="geometry" />
        </mxCell>
        <mxCell id="dxpx9FDBymk5hEzbPDvv-29" value="w" style="text;html=1;align=center;verticalAlign=middle;whiteSpace=wrap;rounded=0;fillColor=#f5f5f5;strokeColor=#666666;fontSize=14;fontColor=#333333;" parent="dxpx9FDBymk5hEzbPDvv-1" vertex="1">
          <mxGeometry x="40" y="500.0000000000001" width="40" height="20" as="geometry" />
        </mxCell>
        <mxCell id="dxpx9FDBymk5hEzbPDvv-30" value="x" style="text;html=1;align=center;verticalAlign=middle;whiteSpace=wrap;rounded=0;fillColor=#f5f5f5;strokeColor=#666666;fontSize=14;fontColor=#333333;" parent="dxpx9FDBymk5hEzbPDvv-1" vertex="1">
          <mxGeometry x="40" y="520.0000000000001" width="40" height="20" as="geometry" />
        </mxCell>
        <mxCell id="dxpx9FDBymk5hEzbPDvv-31" value="y" style="text;html=1;align=center;verticalAlign=middle;whiteSpace=wrap;rounded=0;fillColor=#f5f5f5;strokeColor=#666666;fontSize=14;fontColor=#333333;" parent="dxpx9FDBymk5hEzbPDvv-1" vertex="1">
          <mxGeometry x="40" y="540" width="40" height="20" as="geometry" />
        </mxCell>
        <mxCell id="dxpx9FDBymk5hEzbPDvv-32" value="z" style="text;html=1;align=center;verticalAlign=middle;whiteSpace=wrap;rounded=0;fillColor=#f5f5f5;strokeColor=#666666;fontSize=14;fontColor=#333333;" parent="dxpx9FDBymk5hEzbPDvv-1" vertex="1">
          <mxGeometry x="40" y="560" width="40" height="20" as="geometry" />
        </mxCell>
        <mxCell id="dxpx9FDBymk5hEzbPDvv-59" value="1" style="text;html=1;align=center;verticalAlign=middle;whiteSpace=wrap;rounded=0;fillColor=#f5f5f5;strokeColor=#666666;fontSize=14;fontColor=#333333;" parent="dxpx9FDBymk5hEzbPDvv-1" vertex="1">
          <mxGeometry x="80" y="60" width="40" height="20" as="geometry" />
        </mxCell>
        <mxCell id="dxpx9FDBymk5hEzbPDvv-60" value="3" style="text;html=1;align=center;verticalAlign=middle;whiteSpace=wrap;rounded=0;fillColor=#f5f5f5;strokeColor=#666666;fontSize=14;fontColor=#333333;" parent="dxpx9FDBymk5hEzbPDvv-1" vertex="1">
          <mxGeometry x="80" y="80" width="40" height="20" as="geometry" />
        </mxCell>
        <mxCell id="dxpx9FDBymk5hEzbPDvv-61" value="1" style="text;html=1;align=center;verticalAlign=middle;whiteSpace=wrap;rounded=0;fillColor=#f5f5f5;strokeColor=#666666;fontSize=14;fontColor=#333333;" parent="dxpx9FDBymk5hEzbPDvv-1" vertex="1">
          <mxGeometry x="80" y="100" width="40" height="20" as="geometry" />
        </mxCell>
        <mxCell id="dxpx9FDBymk5hEzbPDvv-62" value="3" style="text;html=1;align=center;verticalAlign=middle;whiteSpace=wrap;rounded=0;fillColor=#f5f5f5;strokeColor=#666666;fontSize=14;fontColor=#333333;" parent="dxpx9FDBymk5hEzbPDvv-1" vertex="1">
          <mxGeometry x="80" y="120" width="40" height="20" as="geometry" />
        </mxCell>
        <mxCell id="dxpx9FDBymk5hEzbPDvv-63" value="1" style="text;html=1;align=center;verticalAlign=middle;whiteSpace=wrap;rounded=0;fillColor=#f5f5f5;strokeColor=#666666;fontSize=14;fontColor=#333333;" parent="dxpx9FDBymk5hEzbPDvv-1" vertex="1">
          <mxGeometry x="80" y="140" width="40" height="20" as="geometry" />
        </mxCell>
        <mxCell id="dxpx9FDBymk5hEzbPDvv-64" value="4" style="text;html=1;align=center;verticalAlign=middle;whiteSpace=wrap;rounded=0;fillColor=#f5f5f5;strokeColor=#666666;fontSize=14;fontColor=#333333;" parent="dxpx9FDBymk5hEzbPDvv-1" vertex="1">
          <mxGeometry x="80" y="160" width="40" height="20" as="geometry" />
        </mxCell>
        <mxCell id="dxpx9FDBymk5hEzbPDvv-65" value="1" style="text;html=1;align=center;verticalAlign=middle;whiteSpace=wrap;rounded=0;fillColor=#f5f5f5;strokeColor=#666666;fontSize=14;fontColor=#333333;" parent="dxpx9FDBymk5hEzbPDvv-1" vertex="1">
          <mxGeometry x="80" y="180" width="40" height="20" as="geometry" />
        </mxCell>
        <mxCell id="dxpx9FDBymk5hEzbPDvv-66" value="3" style="text;html=1;align=center;verticalAlign=middle;whiteSpace=wrap;rounded=0;fillColor=#f5f5f5;strokeColor=#666666;fontSize=14;fontColor=#333333;" parent="dxpx9FDBymk5hEzbPDvv-1" vertex="1">
          <mxGeometry x="80" y="200" width="40" height="20" as="geometry" />
        </mxCell>
        <mxCell id="dxpx9FDBymk5hEzbPDvv-67" value="2" style="text;html=1;align=center;verticalAlign=middle;whiteSpace=wrap;rounded=0;fillColor=#f5f5f5;strokeColor=#666666;fontSize=14;fontColor=#333333;" parent="dxpx9FDBymk5hEzbPDvv-1" vertex="1">
          <mxGeometry x="80" y="220" width="40" height="20" as="geometry" />
        </mxCell>
        <mxCell id="dxpx9FDBymk5hEzbPDvv-68" value="5" style="text;html=1;align=center;verticalAlign=middle;whiteSpace=wrap;rounded=0;fillColor=#f5f5f5;strokeColor=#666666;fontSize=14;fontColor=#333333;" parent="dxpx9FDBymk5hEzbPDvv-1" vertex="1">
          <mxGeometry x="80" y="239.99999999999997" width="40" height="20" as="geometry" />
        </mxCell>
        <mxCell id="dxpx9FDBymk5hEzbPDvv-69" value="5" style="text;html=1;align=center;verticalAlign=middle;whiteSpace=wrap;rounded=0;fillColor=#f5f5f5;strokeColor=#666666;fontSize=14;fontColor=#333333;" parent="dxpx9FDBymk5hEzbPDvv-1" vertex="1">
          <mxGeometry x="80" y="260.0000000000001" width="40" height="20" as="geometry" />
        </mxCell>
        <mxCell id="dxpx9FDBymk5hEzbPDvv-70" value="5" style="text;html=1;align=center;verticalAlign=middle;whiteSpace=wrap;rounded=0;fillColor=#f5f5f5;strokeColor=#666666;fontSize=14;fontColor=#333333;" parent="dxpx9FDBymk5hEzbPDvv-1" vertex="1">
          <mxGeometry x="80" y="280.0000000000001" width="40" height="20" as="geometry" />
        </mxCell>
        <mxCell id="dxpx9FDBymk5hEzbPDvv-71" value="5" style="text;html=1;align=center;verticalAlign=middle;whiteSpace=wrap;rounded=0;fillColor=#f5f5f5;strokeColor=#666666;fontSize=14;fontColor=#333333;" parent="dxpx9FDBymk5hEzbPDvv-1" vertex="1">
          <mxGeometry x="80" y="300.0000000000001" width="40" height="20" as="geometry" />
        </mxCell>
        <mxCell id="mN5bu8pF665VWnjkndUd-2" style="edgeStyle=orthogonalEdgeStyle;rounded=0;orthogonalLoop=1;jettySize=auto;html=1;exitX=1;exitY=0.5;exitDx=0;exitDy=0;entryX=0.5;entryY=1;entryDx=0;entryDy=0;fillColor=#dae8fc;strokeColor=#6c8ebf;" parent="dxpx9FDBymk5hEzbPDvv-1" source="dxpx9FDBymk5hEzbPDvv-72" target="mN5bu8pF665VWnjkndUd-0" edge="1">
          <mxGeometry relative="1" as="geometry" />
        </mxCell>
        <mxCell id="dxpx9FDBymk5hEzbPDvv-72" value="1" style="text;html=1;align=center;verticalAlign=middle;whiteSpace=wrap;rounded=0;fillColor=#dae8fc;strokeColor=#6c8ebf;fontSize=14;fontColor=#333333;" parent="dxpx9FDBymk5hEzbPDvv-1" vertex="1">
          <mxGeometry x="80" y="320.0000000000001" width="40" height="20" as="geometry" />
        </mxCell>
        <mxCell id="mN5bu8pF665VWnjkndUd-3" style="edgeStyle=orthogonalEdgeStyle;rounded=0;orthogonalLoop=1;jettySize=auto;html=1;exitX=1;exitY=0.5;exitDx=0;exitDy=0;fillColor=#dae8fc;strokeColor=#6c8ebf;" parent="dxpx9FDBymk5hEzbPDvv-1" source="dxpx9FDBymk5hEzbPDvv-73" edge="1">
          <mxGeometry relative="1" as="geometry">
            <mxPoint x="180" y="180" as="targetPoint" />
          </mxGeometry>
        </mxCell>
        <mxCell id="dxpx9FDBymk5hEzbPDvv-73" value="1" style="text;html=1;align=center;verticalAlign=middle;whiteSpace=wrap;rounded=0;fillColor=#dae8fc;strokeColor=#6c8ebf;fontSize=14;fontColor=#333333;" parent="dxpx9FDBymk5hEzbPDvv-1" vertex="1">
          <mxGeometry x="80" y="340.0000000000001" width="40" height="20" as="geometry" />
        </mxCell>
        <mxCell id="dxpx9FDBymk5hEzbPDvv-74" value="5" style="text;html=1;align=center;verticalAlign=middle;whiteSpace=wrap;rounded=0;fillColor=#f5f5f5;strokeColor=#666666;fontSize=14;fontColor=#333333;" parent="dxpx9FDBymk5hEzbPDvv-1" vertex="1">
          <mxGeometry x="80" y="360.0000000000001" width="40" height="20" as="geometry" />
        </mxCell>
        <mxCell id="dxpx9FDBymk5hEzbPDvv-75" value="5" style="text;html=1;align=center;verticalAlign=middle;whiteSpace=wrap;rounded=0;fillColor=#f5f5f5;strokeColor=#666666;fontSize=14;fontColor=#333333;" parent="dxpx9FDBymk5hEzbPDvv-1" vertex="1">
          <mxGeometry x="80" y="380.0000000000001" width="40" height="20" as="geometry" />
        </mxCell>
        <mxCell id="mN5bu8pF665VWnjkndUd-4" style="edgeStyle=orthogonalEdgeStyle;rounded=0;orthogonalLoop=1;jettySize=auto;html=1;exitX=1;exitY=0.5;exitDx=0;exitDy=0;fillColor=#dae8fc;strokeColor=#6c8ebf;" parent="dxpx9FDBymk5hEzbPDvv-1" source="dxpx9FDBymk5hEzbPDvv-76" edge="1">
          <mxGeometry relative="1" as="geometry">
            <mxPoint x="180" y="180" as="targetPoint" />
          </mxGeometry>
        </mxCell>
        <mxCell id="dxpx9FDBymk5hEzbPDvv-76" value="1" style="text;html=1;align=center;verticalAlign=middle;whiteSpace=wrap;rounded=0;fillColor=#dae8fc;strokeColor=#6c8ebf;fontSize=14;fontColor=#333333;" parent="dxpx9FDBymk5hEzbPDvv-1" vertex="1">
          <mxGeometry x="80" y="400.0000000000001" width="40" height="20" as="geometry" />
        </mxCell>
        <mxCell id="dxpx9FDBymk5hEzbPDvv-77" value="5" style="text;html=1;align=center;verticalAlign=middle;whiteSpace=wrap;rounded=0;fillColor=#f5f5f5;strokeColor=#666666;fontSize=14;fontColor=#333333;" parent="dxpx9FDBymk5hEzbPDvv-1" vertex="1">
          <mxGeometry x="80" y="420.0000000000001" width="40" height="20" as="geometry" />
        </mxCell>
        <mxCell id="mN5bu8pF665VWnjkndUd-1" value="&lt;font style=&quot;font-size: 10px;&quot;&gt;max(1, 1, 1, 2) = 2&lt;/font&gt;" style="edgeStyle=orthogonalEdgeStyle;rounded=0;orthogonalLoop=1;jettySize=auto;html=1;exitX=1;exitY=0.5;exitDx=0;exitDy=0;entryX=0.5;entryY=1;entryDx=0;entryDy=0;fillColor=#d5e8d4;strokeColor=#82b366;" parent="dxpx9FDBymk5hEzbPDvv-1" source="dxpx9FDBymk5hEzbPDvv-78" target="mN5bu8pF665VWnjkndUd-0" edge="1">
          <mxGeometry x="0.3333" relative="1" as="geometry">
            <mxPoint as="offset" />
          </mxGeometry>
        </mxCell>
        <mxCell id="dxpx9FDBymk5hEzbPDvv-78" value="2" style="text;html=1;align=center;verticalAlign=middle;whiteSpace=wrap;rounded=0;fillColor=#d5e8d4;strokeColor=#82b366;fontSize=14;fontColor=#333333;" parent="dxpx9FDBymk5hEzbPDvv-1" vertex="1">
          <mxGeometry x="80" y="440.0000000000001" width="40" height="20" as="geometry" />
        </mxCell>
        <mxCell id="dxpx9FDBymk5hEzbPDvv-79" value="5" style="text;html=1;align=center;verticalAlign=middle;whiteSpace=wrap;rounded=0;fillColor=#f5f5f5;strokeColor=#666666;fontSize=14;fontColor=#333333;" parent="dxpx9FDBymk5hEzbPDvv-1" vertex="1">
          <mxGeometry x="80" y="460.0000000000001" width="40" height="20" as="geometry" />
        </mxCell>
        <mxCell id="dxpx9FDBymk5hEzbPDvv-80" value="5" style="text;html=1;align=center;verticalAlign=middle;whiteSpace=wrap;rounded=0;fillColor=#f5f5f5;strokeColor=#666666;fontSize=14;fontColor=#333333;" parent="dxpx9FDBymk5hEzbPDvv-1" vertex="1">
          <mxGeometry x="80" y="480.0000000000001" width="40" height="20" as="geometry" />
        </mxCell>
        <mxCell id="dxpx9FDBymk5hEzbPDvv-81" value="5" style="text;html=1;align=center;verticalAlign=middle;whiteSpace=wrap;rounded=0;fillColor=#f5f5f5;strokeColor=#666666;fontSize=14;fontColor=#333333;" parent="dxpx9FDBymk5hEzbPDvv-1" vertex="1">
          <mxGeometry x="80" y="500.0000000000001" width="40" height="20" as="geometry" />
        </mxCell>
        <mxCell id="dxpx9FDBymk5hEzbPDvv-82" value="5" style="text;html=1;align=center;verticalAlign=middle;whiteSpace=wrap;rounded=0;fillColor=#f5f5f5;strokeColor=#666666;fontSize=14;fontColor=#333333;" parent="dxpx9FDBymk5hEzbPDvv-1" vertex="1">
          <mxGeometry x="80" y="520.0000000000001" width="40" height="20" as="geometry" />
        </mxCell>
        <mxCell id="dxpx9FDBymk5hEzbPDvv-83" value="5" style="text;html=1;align=center;verticalAlign=middle;whiteSpace=wrap;rounded=0;fillColor=#f5f5f5;strokeColor=#666666;fontSize=14;fontColor=#333333;" parent="dxpx9FDBymk5hEzbPDvv-1" vertex="1">
          <mxGeometry x="80" y="540" width="40" height="20" as="geometry" />
        </mxCell>
        <mxCell id="dxpx9FDBymk5hEzbPDvv-84" value="5" style="text;html=1;align=center;verticalAlign=middle;whiteSpace=wrap;rounded=0;fillColor=#f5f5f5;strokeColor=#666666;fontSize=14;fontColor=#333333;" parent="dxpx9FDBymk5hEzbPDvv-1" vertex="1">
          <mxGeometry x="80" y="560" width="40" height="20" as="geometry" />
        </mxCell>
        <mxCell id="dxpx9FDBymk5hEzbPDvv-85" value="t" style="text;html=1;align=center;verticalAlign=middle;whiteSpace=wrap;rounded=0;fillColor=#f5f5f5;strokeColor=#666666;fontSize=14;fontColor=#333333;" parent="dxpx9FDBymk5hEzbPDvv-1" vertex="1">
          <mxGeometry x="160" y="60" width="40" height="40" as="geometry" />
        </mxCell>
        <mxCell id="dxpx9FDBymk5hEzbPDvv-86" value="o" style="text;html=1;align=center;verticalAlign=middle;whiteSpace=wrap;rounded=0;fillColor=#f5f5f5;strokeColor=#666666;fontSize=14;fontColor=#333333;" parent="dxpx9FDBymk5hEzbPDvv-1" vertex="1">
          <mxGeometry x="200" y="60" width="40" height="40" as="geometry" />
        </mxCell>
        <mxCell id="dxpx9FDBymk5hEzbPDvv-87" value="r" style="text;html=1;align=center;verticalAlign=middle;whiteSpace=wrap;rounded=0;fillColor=#f5f5f5;strokeColor=#666666;fontSize=14;fontColor=#333333;" parent="dxpx9FDBymk5hEzbPDvv-1" vertex="1">
          <mxGeometry x="240" y="60" width="40" height="40" as="geometry" />
        </mxCell>
        <mxCell id="qAHEgzxy3Hh7zv8tmekt-2" style="edgeStyle=orthogonalEdgeStyle;rounded=0;orthogonalLoop=1;jettySize=auto;html=1;exitX=0.5;exitY=0;exitDx=0;exitDy=0;entryX=0.5;entryY=0;entryDx=0;entryDy=0;" parent="dxpx9FDBymk5hEzbPDvv-1" source="dxpx9FDBymk5hEzbPDvv-88" target="mN5bu8pF665VWnjkndUd-6" edge="1">
          <mxGeometry relative="1" as="geometry">
            <Array as="points">
              <mxPoint x="300" y="40" />
              <mxPoint x="340" y="40" />
              <mxPoint x="340" y="120" />
              <mxPoint x="260" y="120" />
            </Array>
          </mxGeometry>
        </mxCell>
        <mxCell id="dxpx9FDBymk5hEzbPDvv-88" value="n" style="text;html=1;align=center;verticalAlign=middle;whiteSpace=wrap;rounded=0;fillColor=#f5f5f5;strokeColor=#666666;fontSize=14;fontColor=#333333;" parent="dxpx9FDBymk5hEzbPDvv-1" vertex="1">
          <mxGeometry x="280" y="60" width="40" height="40" as="geometry" />
        </mxCell>
        <mxCell id="dxpx9FDBymk5hEzbPDvv-89" value="word" style="text;html=1;align=center;verticalAlign=middle;whiteSpace=wrap;rounded=0;fontSize=10;" parent="dxpx9FDBymk5hEzbPDvv-1" vertex="1">
          <mxGeometry x="160" y="100" width="160" height="20" as="geometry" />
        </mxCell>
        <mxCell id="mN5bu8pF665VWnjkndUd-0" value="2" style="text;html=1;align=center;verticalAlign=middle;whiteSpace=wrap;rounded=0;fillColor=#d5e8d4;strokeColor=#82b366;fontSize=14;fontColor=#333333;" parent="dxpx9FDBymk5hEzbPDvv-1" vertex="1">
          <mxGeometry x="160" y="140" width="40" height="40" as="geometry" />
        </mxCell>
        <mxCell id="mN5bu8pF665VWnjkndUd-5" value="tallestLetter" style="text;html=1;align=center;verticalAlign=middle;whiteSpace=wrap;rounded=0;fontSize=10;" parent="dxpx9FDBymk5hEzbPDvv-1" vertex="1">
          <mxGeometry x="160" y="180" width="40" height="20" as="geometry" />
        </mxCell>
        <mxCell id="mN5bu8pF665VWnjkndUd-6" value="4" style="text;html=1;align=center;verticalAlign=middle;whiteSpace=wrap;rounded=0;fillColor=#ffe6cc;strokeColor=#d79b00;fontSize=14;fontColor=#333333;" parent="dxpx9FDBymk5hEzbPDvv-1" vertex="1">
          <mxGeometry x="240" y="140" width="40" height="40" as="geometry" />
        </mxCell>
        <mxCell id="mN5bu8pF665VWnjkndUd-7" value="letterCount" style="text;html=1;align=center;verticalAlign=middle;whiteSpace=wrap;rounded=0;fontSize=10;" parent="dxpx9FDBymk5hEzbPDvv-1" vertex="1">
          <mxGeometry x="240" y="180" width="40" height="20" as="geometry" />
        </mxCell>
      </root>
    </mxGraphModel>
  </diagram>
  <diagram name="4" id="H5EE9FqyMT1L3OxEPk2X">
    <mxGraphModel dx="1185" dy="703" grid="1" gridSize="10" guides="1" tooltips="1" connect="1" arrows="1" fold="1" page="1" pageScale="1" pageWidth="240" pageHeight="300" math="0" shadow="0">
      <root>
        <mxCell id="XqYmwy8GVLw7sJkjAxcg-0" />
        <mxCell id="XqYmwy8GVLw7sJkjAxcg-1" parent="XqYmwy8GVLw7sJkjAxcg-0" />
        <mxCell id="XqYmwy8GVLw7sJkjAxcg-85" value="t" style="text;html=1;align=center;verticalAlign=middle;whiteSpace=wrap;rounded=0;fillColor=#f5f5f5;strokeColor=#666666;fontSize=14;fontColor=#333333;" vertex="1" parent="XqYmwy8GVLw7sJkjAxcg-1">
          <mxGeometry x="40" y="40" width="40" height="40" as="geometry" />
        </mxCell>
        <mxCell id="XqYmwy8GVLw7sJkjAxcg-86" value="o" style="text;html=1;align=center;verticalAlign=middle;whiteSpace=wrap;rounded=0;fillColor=#f5f5f5;strokeColor=#666666;fontSize=14;fontColor=#333333;" vertex="1" parent="XqYmwy8GVLw7sJkjAxcg-1">
          <mxGeometry x="80" y="40" width="40" height="40" as="geometry" />
        </mxCell>
        <mxCell id="XqYmwy8GVLw7sJkjAxcg-87" value="r" style="text;html=1;align=center;verticalAlign=middle;whiteSpace=wrap;rounded=0;fillColor=#f5f5f5;strokeColor=#666666;fontSize=14;fontColor=#333333;" vertex="1" parent="XqYmwy8GVLw7sJkjAxcg-1">
          <mxGeometry x="120" y="40" width="40" height="40" as="geometry" />
        </mxCell>
        <mxCell id="XqYmwy8GVLw7sJkjAxcg-89" value="n" style="text;html=1;align=center;verticalAlign=middle;whiteSpace=wrap;rounded=0;fillColor=#f5f5f5;strokeColor=#666666;fontSize=14;fontColor=#333333;" vertex="1" parent="XqYmwy8GVLw7sJkjAxcg-1">
          <mxGeometry x="160" y="40" width="40" height="40" as="geometry" />
        </mxCell>
        <mxCell id="XqYmwy8GVLw7sJkjAxcg-90" value="word" style="text;html=1;align=center;verticalAlign=middle;whiteSpace=wrap;rounded=0;fontSize=10;" vertex="1" parent="XqYmwy8GVLw7sJkjAxcg-1">
          <mxGeometry x="40" y="80" width="160" height="20" as="geometry" />
        </mxCell>
        <mxCell id="XqYmwy8GVLw7sJkjAxcg-91" value="2" style="text;html=1;align=center;verticalAlign=middle;whiteSpace=wrap;rounded=0;fillColor=#f5f5f5;strokeColor=#666666;fontSize=14;fontColor=#333333;" vertex="1" parent="XqYmwy8GVLw7sJkjAxcg-1">
          <mxGeometry x="40" y="120" width="40" height="40" as="geometry" />
        </mxCell>
        <mxCell id="7nZNrbQGnaBdgR6EZhVw-2" style="edgeStyle=orthogonalEdgeStyle;rounded=0;orthogonalLoop=1;jettySize=auto;html=1;exitX=0.5;exitY=0;exitDx=0;exitDy=0;entryX=0.5;entryY=0;entryDx=0;entryDy=0;" edge="1" parent="XqYmwy8GVLw7sJkjAxcg-1" source="XqYmwy8GVLw7sJkjAxcg-92" target="7nZNrbQGnaBdgR6EZhVw-1">
          <mxGeometry relative="1" as="geometry">
            <Array as="points">
              <mxPoint x="60" y="180" />
              <mxPoint x="60" y="180" />
            </Array>
          </mxGeometry>
        </mxCell>
        <mxCell id="XqYmwy8GVLw7sJkjAxcg-92" value="tallestLetter" style="text;html=1;align=center;verticalAlign=middle;whiteSpace=wrap;rounded=0;fontSize=10;" vertex="1" parent="XqYmwy8GVLw7sJkjAxcg-1">
          <mxGeometry x="40" y="160" width="40" height="20" as="geometry" />
        </mxCell>
        <mxCell id="XqYmwy8GVLw7sJkjAxcg-93" value="4" style="text;html=1;align=center;verticalAlign=middle;whiteSpace=wrap;rounded=0;fillColor=#f5f5f5;strokeColor=#666666;fontSize=14;fontColor=#333333;" vertex="1" parent="XqYmwy8GVLw7sJkjAxcg-1">
          <mxGeometry x="120" y="120" width="40" height="40" as="geometry" />
        </mxCell>
        <mxCell id="7nZNrbQGnaBdgR6EZhVw-3" style="edgeStyle=orthogonalEdgeStyle;rounded=0;orthogonalLoop=1;jettySize=auto;html=1;exitX=0.5;exitY=0;exitDx=0;exitDy=0;entryX=0.5;entryY=0;entryDx=0;entryDy=0;" edge="1" parent="XqYmwy8GVLw7sJkjAxcg-1" source="XqYmwy8GVLw7sJkjAxcg-94" target="7nZNrbQGnaBdgR6EZhVw-1">
          <mxGeometry relative="1" as="geometry">
            <Array as="points">
              <mxPoint x="140" y="180" />
              <mxPoint x="60" y="180" />
            </Array>
          </mxGeometry>
        </mxCell>
        <mxCell id="XqYmwy8GVLw7sJkjAxcg-94" value="letterCount" style="text;html=1;align=center;verticalAlign=middle;whiteSpace=wrap;rounded=0;fontSize=10;" vertex="1" parent="XqYmwy8GVLw7sJkjAxcg-1">
          <mxGeometry x="120" y="160" width="40" height="20" as="geometry" />
        </mxCell>
        <mxCell id="7nZNrbQGnaBdgR6EZhVw-1" value="8" style="text;html=1;align=center;verticalAlign=middle;whiteSpace=wrap;rounded=0;fillColor=#dae8fc;strokeColor=#6c8ebf;fontSize=14;fontColor=#333333;" vertex="1" parent="XqYmwy8GVLw7sJkjAxcg-1">
          <mxGeometry x="40" y="200" width="40" height="40" as="geometry" />
        </mxCell>
        <mxCell id="7nZNrbQGnaBdgR6EZhVw-4" value="result" style="text;html=1;align=center;verticalAlign=middle;whiteSpace=wrap;rounded=0;fontSize=10;" vertex="1" parent="XqYmwy8GVLw7sJkjAxcg-1">
          <mxGeometry x="40" y="240" width="40" height="20" as="geometry" />
        </mxCell>
      </root>
    </mxGraphModel>
  </diagram>
</mxfile>
